<?xml version="1.0" encoding="UTF-8" standalone="no"?>
<!-- Created with Inkscape (http://www.inkscape.org/) -->

<svg
   width="14mm"
   height="14mm"
   viewBox="0 0 14.000001 14"
   version="1.1"
   id="svg1"
   sodipodi:docname="BigButton.svg"
   inkscape:version="1.4.3 (0d15f75, 2025-12-25)"
   xml:space="preserve"
   xmlns:inkscape="http://www.inkscape.org/namespaces/inkscape"
   xmlns:sodipodi="http://sodipodi.sourceforge.net/DTD/sodipodi-0.dtd"
   xmlns="http://www.w3.org/2000/svg"
   xmlns:svg="http://www.w3.org/2000/svg"><sodipodi:namedview
     id="namedview1"
     pagecolor="#ffffff"
     bordercolor="#000000"
     borderopacity="0.25"
     inkscape:showpageshadow="2"
     inkscape:pageopacity="0.0"
     inkscape:pagecheckerboard="0"
     inkscape:deskcolor="#d1d1d1"
     inkscape:document-units="mm"
     inkscape:zoom="8.7526807"
     inkscape:cx="38.730991"
     inkscape:cy="32.332951"
     inkscape:window-width="1680"
     inkscape:window-height="909"
     inkscape:window-x="0"
     inkscape:window-y="31"
     inkscape:window-maximized="1"
     inkscape:current-layer="layer1"
     showgrid="false"
     showguides="true" /><defs
     id="defs1"><inkscape:path-effect
       effect="tiling"
       id="path-effect863"
       is_visible="true"
       lpeversion="1.3.1"
       unit="px"
       seed="1;1"
       lpesatellites=""
       num_rows="2"
       num_cols="2"
       gapx="0"
       gapy="0"
       offset="0"
       offset_type="false"
       scale="0"
       rotate="0"
       mirrorrowsx="false"
       mirrorrowsy="false"
       mirrorcolsx="false"
       mirrorcolsy="false"
       mirrortrans="false"
       shrink_interp="false"
       split_items="false"
       link_styles="false"
       interpolate_scalex="false"
       interpolate_scaley="true"
       interpolate_rotatex="false"
       interpolate_rotatey="true"
       random_scale="false"
       random_rotate="false"
       random_gap_y="false"
       random_gap_x="false"
       transformorigin="" /><inkscape:path-effect
       effect="knot"
       id="path-effect56"
       is_visible="true"
       lpeversion="1"
       switcher_size="15"
       interruption_width="3"
       prop_to_stroke_width="true"
       add_stroke_width="inkscape_1.0_and_up"
       both="false"
       inverse_width="false"
       add_other_stroke_width="inkscape_1.0_and_up"
       crossing_points_vector="" /><clipPath
       clipPathUnits="userSpaceOnUse"
       id="clipPath25"><rect
         style="fill:#ff0000;stroke:none;stroke-width:3;stroke-linecap:square;stroke-linejoin:miter;paint-order:stroke markers fill;stop-color:#000000"
         id="rect25-8"
         width="78"
         height="45.033199"
         x="763.61322"
         y="452.82422" /></clipPath><clipPath
       clipPathUnits="userSpaceOnUse"
       id="clipPath34"><rect
         style="fill:#000000;stroke:#000000;stroke-width:0;stroke-linejoin:bevel;paint-order:stroke markers fill;stop-color:#000000"
         id="rect34"
         width="20"
         height="200"
         x="530"
         y="595" /></clipPath><clipPath
       clipPathUnits="userSpaceOnUse"
       id="clipPath55"><path
         id="path55"
         style="stroke-width:0.1;stroke-linecap:square;paint-order:markers fill stroke;stop-color:#000000"
         d="m 1736.6147,-745.57287 h 1589.4765 v 72.46715 H 1736.6147 Z" /></clipPath><clipPath
       clipPathUnits="userSpaceOnUse"
       id="clipPath52"><path
         id="path52"
         style="stroke-width:0.1;stroke-linecap:square;paint-order:markers fill stroke;stop-color:#000000"
         d="m -880.82767,-187.29769 h 1640.84 v 73.28155 h -1640.84 z" /></clipPath><clipPath
       clipPathUnits="userSpaceOnUse"
       id="clipPath54"><path
         id="path54"
         style="stroke-width:0.0999999;stroke-linecap:square;paint-order:markers fill stroke;stop-color:#000000"
         d="m 1691.1994,-792.32001 h 1634.8919 v 92.82806 H 1691.1994 Z" /></clipPath><clipPath
       clipPathUnits="userSpaceOnUse"
       id="clipPath2"><path
         id="path2"
         style="stroke-width:0.1;stroke-linecap:square;paint-order:markers fill stroke;stop-color:#000000"
         d="M 438.25066,553.76374 H 1298.1212 V 755.15928 H 438.25066 Z"
         sodipodi:nodetypes="ccccc" /></clipPath><clipPath
       clipPathUnits="userSpaceOnUse"
       id="clipPath43"><rect
         style="fill:#000000;stroke:none;stroke-width:0.999995;stroke-linecap:butt;stroke-linejoin:bevel;paint-order:stroke markers fill;stop-color:#000000"
         id="rect43"
         width="46.19186"
         height="80.006783"
         x="74.999985"
         y="399.99661" /></clipPath><clipPath
       clipPathUnits="userSpaceOnUse"
       id="clipPath33"><rect
         style="fill:#000000;stroke:none;stroke-width:0.999995;stroke-linecap:butt;stroke-linejoin:bevel;paint-order:stroke markers fill;stop-color:#000000"
         id="rect33"
         width="46.19186"
         height="80.006783"
         x="74.999985"
         y="399.99661" /></clipPath><clipPath
       clipPathUnits="userSpaceOnUse"
       id="clipPath5"><rect
         style="fill:#000000;stroke:#000000;stroke-width:0;stroke-linejoin:bevel;paint-order:stroke markers fill;stop-color:#000000"
         id="rect5-4"
         width="20"
         height="200"
         x="530"
         y="595" /></clipPath><filter
       inkscape:label="Blur"
       inkscape:menu="Scatter"
       inkscape:menu-tooltip="Convert to small scattered particles with some thickness"
       height="3.0446758"
       y="-1.022338"
       width="26.06498"
       x="-12.53249"
       style="color-interpolation-filters:sRGB"
       id="filter232"><feTurbulence
         baseFrequency="0.05"
         numOctaves="5"
         type="fractalNoise"
         result="result91"
         id="feTurbulence232" /><feDisplacementMap
         scale="25"
         result="result5"
         xChannelSelector="R"
         in="SourceGraphic"
         in2="result91"
         id="feDisplacementMap232"
         yChannelSelector="A" /><feComposite
         in="SourceGraphic"
         operator="atop"
         in2="result5"
         id="feComposite232"
         result="fbSourceGraphic" /><feColorMatrix
         result="fbSourceGraphicAlpha"
         in="fbSourceGraphic"
         values="0 0 0 -1 0 0 0 0 -1 0 0 0 0 -1 0 0 0 0 1 0"
         id="feColorMatrix404" /><feGaussianBlur
         id="feGaussianBlur404"
         result="result8"
         stdDeviation="7"
         in="fbSourceGraphic" /><feTurbulence
         id="feTurbulence404"
         baseFrequency="0.04"
         numOctaves="1"
         type="turbulence"
         result="result7"
         seed="0" /><feComposite
         id="feComposite404"
         in2="result7"
         in="result8"
         operator="xor"
         result="result6" /><feDisplacementMap
         id="feDisplacementMap404"
         in2="result6"
         result="result4"
         scale="100"
         yChannelSelector="A"
         xChannelSelector="A"
         in="fbSourceGraphic" /><feComposite
         id="feComposite405"
         in2="fbSourceGraphic"
         in="result4"
         operator="arithmetic"
         result="result2"
         k1="1"
         k2="0"
         k3="0"
         k4="0" /><feComposite
         id="feComposite406"
         in2="result2"
         operator="out"
         in="fbSourceGraphic"
         result="fbSourceGraphic" /><feComposite
         id="feComposite407"
         in2="fbSourceGraphic"
         operator="in"
         result="fbSourceGraphic"
         in="fbSourceGraphic" /><feColorMatrix
         result="fbSourceGraphicAlpha"
         in="fbSourceGraphic"
         values="0 0 0 -1 0 0 0 0 -1 0 0 0 0 -1 0 0 0 0 1 0"
         id="feColorMatrix407" /><feGaussianBlur
         id="feGaussianBlur407"
         result="result8"
         stdDeviation="7"
         in="fbSourceGraphic" /><feTurbulence
         id="feTurbulence407"
         baseFrequency="0.04"
         numOctaves="1"
         type="turbulence"
         result="result7"
         seed="0" /><feComposite
         id="feComposite408"
         in2="result7"
         in="result8"
         operator="xor"
         result="result6" /><feDisplacementMap
         id="feDisplacementMap408"
         in2="result6"
         result="result4"
         scale="100"
         yChannelSelector="A"
         xChannelSelector="A"
         in="fbSourceGraphic" /><feComposite
         id="feComposite409"
         in2="fbSourceGraphic"
         in="result4"
         operator="arithmetic"
         result="result2"
         k1="1"
         k2="0"
         k3="0"
         k4="0" /><feComposite
         id="feComposite410"
         in2="result2"
         operator="out"
         in="fbSourceGraphic"
         result="fbSourceGraphic" /><feComposite
         id="feComposite411"
         in2="fbSourceGraphic"
         operator="in"
         result="fbSourceGraphic"
         in="fbSourceGraphic" /><feColorMatrix
         result="fbSourceGraphicAlpha"
         in="fbSourceGraphic"
         values="0 0 0 -1 0 0 0 0 -1 0 0 0 0 -1 0 0 0 0 1 0"
         id="feColorMatrix471" /><feTurbulence
         id="feTurbulence471"
         baseFrequency="0.09"
         numOctaves="5"
         type="fractalNoise"
         result="result6" /><feColorMatrix
         id="feColorMatrix472"
         values="1 0 0 0 0 0 1 0 0 0 0 0 1 0 0 0 0 0 4.9 -2.9 "
         result="result5"
         in="result6" /><feComposite
         id="feComposite472"
         in2="result5"
         operator="in"
         in="fbSourceGraphic" /><feMorphology
         id="feMorphology472"
         result="result3"
         radius="6"
         operator="dilate" /><feTurbulence
         id="feTurbulence472"
         baseFrequency="0.2"
         numOctaves="1"
         type="fractalNoise"
         result="result91" /><feDisplacementMap
         id="feDisplacementMap472"
         result="result4"
         scale="15"
         yChannelSelector="G"
         xChannelSelector="R"
         in="result3"
         in2="result91" /><feComposite
         id="feComposite473"
         in2="result4"
         operator="arithmetic"
         result="result2"
         k1="0.5"
         k3="1"
         k2="0"
         k4="0" /><feConvolveMatrix
         id="feConvolveMatrix473"
         order="3 3"
         kernelMatrix="1 0 0 0 2 0 0 0 -1 "
         targetX="0"
         targetY="0"
         divisor="1.5"
         edgeMode="duplicate"
         in="result2"
         result="fbSourceGraphic" /><feColorMatrix
         result="fbSourceGraphicAlpha"
         in="fbSourceGraphic"
         values="0 0 0 -1 0 0 0 0 -1 0 0 0 0 -1 0 0 0 0 1 0"
         id="feColorMatrix473" /><feTurbulence
         id="feTurbulence473"
         baseFrequency="0.14"
         numOctaves="1"
         type="fractalNoise" /><feColorMatrix
         id="feColorMatrix474"
         values="1 0 0 0 0 0 1 0 0 0 0 0 1 0 0 0 0 0 6 -3.5 "
         result="result5" /><feComposite
         id="feComposite474"
         in2="result5"
         operator="in"
         in="fbSourceGraphic"
         result="result6" /><feMorphology
         id="feMorphology474"
         result="result3"
         radius="5"
         operator="dilate"
         in="result6" /><feDisplacementMap
         id="feDisplacementMap474"
         result="result4"
         scale="0"
         yChannelSelector="A"
         xChannelSelector="R"
         in="result3"
         in2="result3" /><feComposite
         id="feComposite475"
         in2="result4"
         operator="arithmetic"
         result="result2"
         k1="1"
         k3="1"
         k2="0"
         k4="0" /><feBlend
         id="feBlend475"
         mode="darken"
         in="result2"
         in2="result2" /><feConvolveMatrix
         id="feConvolveMatrix475"
         order="3 3"
         kernelMatrix="2 0 0 0 1 0 0 0 -1 "
         targetX="1"
         targetY="1"
         divisor="2"
         edgeMode="duplicate"
         result="fbSourceGraphic" /><feColorMatrix
         result="fbSourceGraphicAlpha"
         in="fbSourceGraphic"
         values="0 0 0 -1 0 0 0 0 -1 0 0 0 0 -1 0 0 0 0 1 0"
         id="feColorMatrix475" /><feGaussianBlur
         id="feGaussianBlur475"
         stdDeviation="0.01"
         result="result1"
         in="fbSourceGraphic" /><feBlend
         id="feBlend476"
         in2="result1"
         result="fbSourceGraphic"
         mode="multiply" /><feTurbulence
         id="feTurbulence476"
         baseFrequency="0.8"
         type="fractalNoise"
         seed="0"
         numOctaves="3"
         result="result3" /><feDisplacementMap
         id="feDisplacementMap476"
         in="fbSourceGraphic"
         xChannelSelector="R"
         yChannelSelector="G"
         scale="50"
         result="result2"
         in2="result3" /><feMorphology
         id="feMorphology476"
         radius="1"
         operator="dilate"
         result="result4" /><feBlend
         id="feBlend477"
         mode="screen"
         in2="result2"
         result="fbSourceGraphic" /><feColorMatrix
         result="fbSourceGraphicAlpha"
         in="fbSourceGraphic"
         values="0 0 0 -1 0 0 0 0 -1 0 0 0 0 -1 0 0 0 0 1 0"
         id="feColorMatrix478" /><feGaussianBlur
         id="feGaussianBlur478"
         stdDeviation="24.7694 15.8814"
         result="fbSourceGraphic"
         in="fbSourceGraphic" /><feColorMatrix
         result="fbSourceGraphicAlpha"
         in="fbSourceGraphic"
         values="0 0 0 -1 0 0 0 0 -1 0 0 0 0 -1 0 0 0 0 1 0"
         id="feColorMatrix479" /><feGaussianBlur
         id="feGaussianBlur479"
         stdDeviation="24.77 15.8814"
         result="blur"
         in="fbSourceGraphic" /></filter><filter
       inkscape:label="Ripple"
       inkscape:menu="Distort"
       inkscape:menu-tooltip="Horizontal rippling of edges"
       style="color-interpolation-filters:sRGB"
       id="filter533"
       x="0"
       y="0"
       width="1"
       height="1"><feTurbulence
         numOctaves="1"
         baseFrequency="0.002 0.107"
         id="feTurbulence533" /><feColorMatrix
         values="2 0 0 0 0 0 0 0 0 0 0 0 0 0 0 0 0 0 0.5 0.5"
         result="result91"
         id="feColorMatrix533" /><feDisplacementMap
         yChannelSelector="A"
         xChannelSelector="R"
         scale="14.3"
         in="SourceGraphic"
         in2="result91"
         id="feDisplacementMap533" /></filter><filter
       inkscape:label="Torn Edges"
       inkscape:menu="Distort"
       inkscape:menu-tooltip="Displace the outside of shapes and pictures without altering their content"
       height="1"
       y="0"
       width="1"
       x="0"
       style="color-interpolation-filters:sRGB"
       id="filter13"><feTurbulence
         baseFrequency="0.05"
         numOctaves="5"
         type="fractalNoise"
         result="result91"
         id="feTurbulence13" /><feDisplacementMap
         scale="25"
         result="result5"
         xChannelSelector="R"
         in="SourceGraphic"
         in2="result91"
         id="feDisplacementMap13"
         yChannelSelector="A" /><feComposite
         in="SourceGraphic"
         operator="atop"
         in2="result5"
         id="feComposite13" /></filter><filter
       inkscape:label="Ripple"
       inkscape:menu="Distort"
       inkscape:menu-tooltip="Horizontal rippling of edges"
       style="color-interpolation-filters:sRGB"
       id="filter2"
       x="0"
       y="0"
       width="1"
       height="1"><feTurbulence
         numOctaves="1"
         baseFrequency="0.002 0.107"
         id="feTurbulence2" /><feColorMatrix
         values="2 0 0 0 0 0 0 0 0 0 0 0 0 0 0 0 0 0 0.5 0.5"
         result="result91"
         id="feColorMatrix2" /><feDisplacementMap
         yChannelSelector="A"
         xChannelSelector="R"
         scale="14.3"
         in="SourceGraphic"
         in2="result91"
         id="feDisplacementMap2" /></filter><filter
       style="color-interpolation-filters:sRGB"
       inkscape:label="Drop Shadow"
       id="filter99"
       x="0"
       y="0"
       width="1.0349084"
       height="1.0833634"><feFlood
         result="flood"
         in="SourceGraphic"
         flood-opacity="0.549020"
         flood-color="rgb(0,0,0)"
         id="feFlood98" /><feGaussianBlur
         result="blur"
         in="SourceGraphic"
         stdDeviation="0.000000"
         id="feGaussianBlur98" /><feOffset
         result="offset"
         in="blur"
         dx="0.600000"
         dy="0.500000"
         id="feOffset98" /><feComposite
         result="comp1"
         operator="in"
         in="flood"
         in2="offset"
         id="feComposite98" /><feComposite
         result="comp2"
         operator="over"
         in="SourceGraphic"
         in2="comp1"
         id="feComposite99" /></filter></defs><g
     inkscape:label="bg"
     inkscape:groupmode="layer"
     id="layer1"
     transform="translate(-1.0889406,-1.1716728)"><path
       id="rect862"
       style="fill:#d5b330;fill-opacity:1;stroke:none;stroke-width:0.193182;stroke-dashoffset:0.831496;stroke-opacity:1"
       d="M 8.0890301 1.1716728 A 7 7 0 0 0 7.6471966 1.1856254 L 7.6906048 1.1856254 L 7.6900881 1.4512423 L 8.0983319 1.6884371 L 8.5076092 1.4533094 L 8.508126 1.1876925 L 8.5623862 1.1876925 A 7 7 0 0 0 8.0890301 1.1716728 z M 7.6347943 1.186659 A 7 7 0 0 0 6.8167564 1.2884615 L 6.8162396 1.4171359 L 6.8162396 1.4491752 L 6.8441449 1.4657117 L 7.1965781 1.6703504 L 7.2244834 1.6863701 L 7.2523887 1.6703504 L 7.6058555 1.467262 L 7.6337607 1.4512423 L 7.6337607 1.4192029 L 7.6347943 1.186659 z M 8.5644533 1.1876925 L 8.5639365 1.42127 L 8.5639365 1.4533094 L 8.5918418 1.4698458 L 8.9442751 1.6739677 L 8.9721803 1.6905042 L 9.0000856 1.6744845 L 9.3535524 1.4713961 L 9.3814577 1.4553764 L 9.3814577 1.4228203 L 9.3819745 1.2920789 A 7 7 0 0 0 8.5644533 1.1876925 z M 6.760429 1.2987968 A 7 7 0 0 0 6.0111208 1.4874158 L 6.3506349 1.684303 L 6.7599123 1.4491752 L 6.760429 1.2987968 z M 9.4383018 1.3029309 L 9.437785 1.4553764 L 9.8460288 1.6925712 L 10.190711 1.4946505 A 7 7 0 0 0 9.4383018 1.3029309 z M 6.7878176 1.4977511 L 6.7599123 1.5137708 L 6.4064455 1.7168592 L 6.3785402 1.7328789 L 6.3775067 2.2052014 L 6.405412 2.2212211 L 6.7578452 2.4258598 L 6.7857505 2.4423963 L 6.8136558 2.4263766 L 7.1671226 2.2232882 L 7.1955446 2.2072685 L 7.1955446 2.1747124 L 7.1960614 1.7669853 L 7.1960614 1.7349459 L 6.7878176 1.4977511 z M 7.661666 1.4998181 L 7.2523887 1.7349459 L 7.2513552 2.2072685 L 7.2792604 2.2232882 L 7.6316937 2.4279269 L 7.659599 2.4439466 L 7.6875042 2.4279269 L 8.040971 2.2253553 L 8.0688763 2.2088188 L 8.0704266 1.737013 L 8.0425213 1.7204765 L 7.6895713 1.5158378 L 7.661666 1.4998181 z M 8.5355145 1.5018852 L 8.5076092 1.5179049 L 8.1541424 1.7209933 L 8.1262371 1.737013 L 8.1252036 2.2093356 L 8.1531089 2.2253553 L 8.5055422 2.4299939 L 8.5334474 2.4460136 L 8.5613527 2.4299939 L 8.9148195 2.2269055 L 8.9168866 2.225872 L 8.9427248 2.2108859 L 8.9432415 2.1788465 L 8.9437583 1.7711194 L 8.9442751 1.7385633 L 8.5355145 1.5018852 z M 9.409363 1.5039523 L 9.0000856 1.73908 L 8.9990521 2.2108859 L 9.0269574 2.2274223 L 9.3793906 2.432061 L 9.4072959 2.4480807 L 9.4352012 2.432061 L 9.788668 2.2289726 L 9.8031374 2.2207044 L 9.8165732 2.2129529 L 9.8181235 1.7406303 L 9.7897015 1.7246106 L 9.4372682 1.519972 L 9.409363 1.5039523 z M 5.938257 1.5101534 A 7 7 0 0 0 5.8204347 1.5494275 L 5.5046917 1.7308118 L 5.5036582 2.2031344 L 5.5315635 2.2191541 L 5.8839968 2.4237928 L 5.911902 2.4403292 L 5.9398073 2.4243095 L 6.2932741 2.2212211 L 6.2953412 2.2201876 L 6.3082603 2.2129529 L 6.3216961 2.2052014 L 6.3227297 1.7328789 L 6.2948244 1.7168592 L 5.9418744 1.5122205 L 5.938257 1.5101534 z M 10.262541 1.5179049 L 10.255306 1.522039 L 9.9018394 1.7246106 L 9.8739341 1.7411471 L 9.8729006 2.2129529 L 9.9008058 2.2294894 L 10.253239 2.434128 L 10.281144 2.4501477 L 10.30905 2.434128 L 10.662516 2.2310397 L 10.664584 2.2300061 L 10.690422 2.21502 L 10.690938 2.1824638 L 10.691455 1.7752535 L 10.691455 1.7426974 L 10.360726 1.550461 A 7 7 0 0 0 10.360209 1.550461 A 7 7 0 0 0 10.262541 1.5179049 z M 10.668718 1.664666 L 10.691972 1.6781018 L 10.719877 1.6946383 L 10.729696 1.6889539 A 7 7 0 0 0 10.668718 1.664666 z M 5.5036582 1.666733 A 7 7 0 0 0 5.4716188 1.6791354 L 5.4767865 1.682236 L 5.5036582 1.666733 z M 5.4065065 1.7060071 A 7 7 0 0 0 4.6298097 2.0858289 L 4.6298097 2.2010673 L 4.657715 2.2176038 L 5.0101483 2.4222425 L 5.0380536 2.4382622 L 5.0659588 2.4222425 L 5.4194256 2.2191541 L 5.4478477 2.2031344 L 5.4478477 2.1705782 L 5.4488812 1.7633679 L 5.4488812 1.7308118 L 5.4065065 1.7060071 z M 10.794808 1.7158256 L 10.747783 1.7426974 L 10.746749 2.21502 L 10.774654 2.2315564 L 11.127088 2.4361951 L 11.154993 2.4522148 L 11.182898 2.4361951 L 11.536365 2.2331067 L 11.550834 2.2248385 L 11.56427 2.217087 L 11.564787 2.0956474 A 7 7 0 0 0 10.794808 1.7158256 z M 4.5739992 2.1178683 A 7 7 0 0 0 4.116146 2.4082898 L 4.1362998 2.4201754 L 4.1642051 2.4361951 L 4.1921104 2.4201754 L 4.5455772 2.217087 L 4.5476442 2.2160535 L 4.5605633 2.2088188 L 4.5739992 2.2010673 L 4.5739992 2.1178683 z M 11.620598 2.1282036 L 11.620598 2.217087 L 11.648503 2.2331067 L 12.000936 2.4377454 L 12.028841 2.4542818 L 12.056747 2.4382622 L 12.083102 2.423276 A 7 7 0 0 0 11.620598 2.1282036 z M 4.6019045 2.2496432 L 4.1921104 2.4847709 L 4.1915936 2.7069796 L 4.1910768 2.9725965 L 4.5993206 3.2097913 L 5.0091148 2.9746635 L 5.0096315 2.7090467 L 5.0101483 2.486838 L 4.6019045 2.2496432 z M 5.4757529 2.2517102 L 5.0659588 2.486838 L 5.0659588 2.5188774 L 5.0654421 2.7090467 L 5.0649253 2.9421074 L 5.0649253 2.9746635 L 5.0928306 2.9906832 L 5.4452638 3.1953219 L 5.4731691 3.2118583 L 5.5010744 3.1958387 L 5.8545412 2.9927503 L 5.8829632 2.9767306 L 5.8829632 2.9441744 L 5.88348 2.710597 L 5.8839968 2.5209444 L 5.8839968 2.4883883 L 5.4757529 2.2517102 z M 6.3496014 2.2537773 L 5.9398073 2.4889051 L 5.9392905 2.7111137 L 5.9387738 2.9767306 L 6.3470176 3.2134086 L 6.7568117 2.9782809 L 6.7573285 2.712664 L 6.7578452 2.4904554 L 6.3496014 2.2537773 z M 7.2229331 2.2553276 L 6.8136558 2.4909721 L 6.8136558 2.5230115 L 6.813139 2.7131808 L 6.8126222 2.9462415 L 6.8126222 2.9787976 L 6.8405275 2.9948173 L 7.1929608 3.199456 L 7.2208661 3.2154757 L 7.2487713 3.199456 L 7.6022381 2.9963676 L 7.6306602 2.9803479 L 7.6306602 2.9483085 L 7.6311769 2.7147311 L 7.6316937 2.5250786 L 7.6316937 2.4925224 L 7.2229331 2.2553276 z M 8.0967816 2.2573946 L 7.6875042 2.4925224 L 7.6869875 2.7147311 L 7.6864707 2.9803479 L 8.0947145 3.2175428 L 8.5045086 2.982415 L 8.5050254 2.7167981 L 8.5055422 2.4945895 L 8.0967816 2.2573946 z M 8.9706301 2.2594617 L 8.5613527 2.4945895 L 8.5613527 2.5271456 L 8.5608359 2.7167981 L 8.5603192 2.9503756 L 8.5603192 2.982415 L 8.5882245 2.9989514 L 8.9406577 3.2035901 L 8.968563 3.2196098 L 8.9964683 3.2035901 L 9.3499351 3.0005017 L 9.3783571 2.984482 L 9.3783571 2.9519259 L 9.3788739 2.7188652 L 9.3793906 2.5286959 L 9.3793906 2.4966565 L 8.9706301 2.2594617 z M 9.8444785 2.2615288 L 9.4352012 2.4966565 L 9.4346844 2.7188652 L 9.4341677 2.984482 L 9.8424115 3.2216769 L 10.252206 2.9865491 L 10.252722 2.7209322 L 10.253239 2.4987236 L 9.8444785 2.2615288 z M 10.718327 2.2635958 L 10.30905 2.4987236 L 10.30905 2.530763 L 10.308533 2.7209322 L 10.308016 2.9545097 L 10.308016 2.9865491 L 10.335921 3.0025688 L 10.688355 3.2072075 L 10.71626 3.2237439 L 10.744165 3.2077242 L 11.097632 3.0046359 L 11.125537 2.9886162 L 11.126054 2.95606 L 11.126571 2.7224825 L 11.127088 2.53283 L 11.127088 2.5007906 L 10.718327 2.2635958 z M 11.592175 2.2656629 L 11.182898 2.5007906 L 11.182381 2.7229993 L 11.181865 2.9886162 L 11.590108 3.225811 L 11.999386 2.9901665 L 12.000419 2.7245496 L 12.000936 2.5023409 L 11.592175 2.2656629 z M 4.0655031 2.4434298 A 7 7 0 0 0 3.3699383 3.0015353 L 3.6975669 3.1917045 L 3.7254722 3.2077242 L 3.7538942 3.1917045 L 4.107361 2.9886162 L 4.1352663 2.9725965 L 4.1352663 2.9400403 L 4.135783 2.7069796 L 4.1362998 2.5168103 L 4.1362998 2.4847709 L 4.0655031 2.4434298 z M 12.133744 2.458416 L 12.056747 2.5028577 L 12.056747 2.5348971 L 12.05623 2.7250664 L 12.055713 2.9581271 L 12.055713 2.9906832 L 12.083618 3.0067029 L 12.436052 3.2113416 L 12.463957 3.2273613 L 12.491862 3.2113416 L 12.826725 3.0185885 A 7 7 0 0 0 12.133744 2.458416 z M 4.1631716 3.0211723 L 3.7533774 3.2563001 L 3.7523439 3.7286227 L 3.7802492 3.7446424 L 4.1326825 3.949281 L 4.1605877 3.9653007 L 4.1890098 3.949281 L 4.5424766 3.7461927 L 4.556946 3.7379244 L 4.5703818 3.730173 L 4.5714154 3.2578504 L 4.5435101 3.2418307 L 4.1910768 3.037192 L 4.1631716 3.0211723 z M 5.03702 3.0232394 L 5.008598 3.0392591 L 4.6551312 3.2423474 L 4.6272259 3.2583671 L 4.6261924 3.730173 L 4.6540977 3.7467094 L 5.0065309 3.9513481 L 5.034953 3.9673678 L 5.0628582 3.9513481 L 5.416325 3.7482597 L 5.4442303 3.73224 L 5.4442303 3.7002006 L 5.4452638 3.2924736 L 5.4452638 3.2599174 L 5.03702 3.0232394 z M 5.9108685 3.0247897 L 5.5010744 3.2604342 L 5.5000409 3.73224 L 5.5279461 3.7487765 L 5.8803794 3.9534152 L 5.9082847 3.9694348 L 5.9367067 3.9534152 L 6.2901735 3.7503268 L 6.3046429 3.7420585 L 6.3180788 3.7343071 L 6.3191123 3.2619845 L 6.291207 3.2459648 L 5.9387738 3.0413261 L 5.9108685 3.0247897 z M 6.784717 3.0268567 L 6.7562949 3.0428764 L 6.4028281 3.2459648 L 6.3749229 3.2619845 L 6.3738893 3.7343071 L 6.4017946 3.7508435 L 6.7542279 3.9554822 L 6.7821331 3.9715019 L 6.8105552 3.9554822 L 7.164022 3.7523938 L 7.1919273 3.7363741 L 7.1919273 3.703818 L 7.1929608 3.2960909 L 7.1929608 3.2640515 L 6.784717 3.0268567 z M 7.6585654 3.0289238 L 7.2487713 3.2640515 L 7.2477378 3.7363741 L 7.2756431 3.7523938 L 7.6280763 3.9570325 L 7.6559816 3.973569 L 7.6844037 3.9575493 L 8.0378705 3.7544609 L 8.0657757 3.7384412 L 8.0668093 3.2661186 L 8.038904 3.2495821 L 7.6864707 3.0454602 L 7.6585654 3.0289238 z M 8.5318971 3.0309908 L 8.5039919 3.0470105 L 8.1505251 3.2500989 L 8.1226198 3.2661186 L 8.1215863 3.7384412 L 8.1494915 3.7544609 L 8.5019248 3.9590996 L 8.5298301 3.975636 L 8.5582521 3.9590996 L 8.9396242 3.7399915 L 8.9396242 3.7079521 L 8.9406577 3.300225 L 8.9406577 3.2681857 L 8.5324139 3.0309908 L 8.5318971 3.0309908 z M 9.4057456 3.0330579 L 8.9964683 3.2681857 L 8.9954347 3.7405082 L 9.02334 3.7565279 L 9.3757733 3.9611666 L 9.4036786 3.9771863 L 9.4321006 3.9611666 L 9.7855674 3.7580782 L 9.8000368 3.74981 L 9.8134727 3.7420585 L 9.8145062 3.269736 L 9.7866009 3.2537163 L 9.4341677 3.0490776 L 9.4057456 3.0330579 z M 10.279594 3.0351249 L 10.251689 3.0511446 L 9.898222 3.254233 L 9.8703167 3.2702527 L 9.8692832 3.7425753 L 9.8971885 3.758595 L 10.249622 3.9632337 L 10.277527 3.9792534 L 10.305432 3.9632337 L 10.658899 3.7601453 L 10.687321 3.7441256 L 10.687321 3.7120862 L 10.688355 3.3043592 L 10.688355 3.271803 L 10.279594 3.0351249 z M 11.153443 3.037192 L 10.744165 3.2723198 L 10.743132 3.7441256 L 10.771037 3.7606621 L 11.12347 3.9653007 L 11.151375 3.9813204 L 11.179281 3.9653007 L 11.532748 3.7622124 L 11.534815 3.7611788 L 11.547734 3.7539441 L 11.56117 3.7461927 L 11.562203 3.2738701 L 11.534298 3.2578504 L 11.181348 3.0532117 L 11.153443 3.037192 z M 12.027291 3.0387423 L 11.999386 3.0552788 L 11.645919 3.2578504 L 11.618014 3.2738701 L 11.61698 3.7461927 L 11.644885 3.7627291 L 11.997319 3.9673678 L 12.025224 3.9833875 L 12.053129 3.9673678 L 12.406596 3.7642794 L 12.435018 3.7482597 L 12.435018 3.7157036 L 12.436052 3.3084933 L 12.436052 3.2759371 L 12.027291 3.0387423 z M 3.3270469 3.0408094 A 7 7 0 0 0 2.8790122 3.4965955 L 2.8784955 3.7265556 L 2.9064007 3.7425753 L 3.258834 3.947214 L 3.287256 3.9632337 L 3.3151613 3.947214 L 3.6686281 3.7441256 L 3.6965334 3.7281059 L 3.6965334 3.6960665 L 3.6975669 3.2883395 L 3.6975669 3.2563001 L 3.3270469 3.0408094 z M 12.870134 3.0588961 L 12.491862 3.2759371 L 12.490829 3.7482597 L 12.518734 3.7642794 L 12.871167 3.9689181 L 12.899072 3.9854545 L 12.926978 3.9694348 L 13.280445 3.7663465 L 13.285095 3.7637626 L 13.294914 3.7580782 L 13.308867 3.7503268 L 13.309383 3.5084811 A 7 7 0 0 0 12.870134 3.0588961 z M 2.8232017 3.5596407 A 7 7 0 0 0 2.5617189 3.8759005 L 2.7947796 3.7425753 L 2.809249 3.7343071 L 2.8226849 3.7265556 L 2.8232017 3.5596407 z M 13.365194 3.5715263 L 13.364677 3.7503268 L 13.392582 3.7663465 L 13.643213 3.9115572 A 7 7 0 0 0 13.365194 3.5715263 z M 2.8505902 3.7746147 L 2.4749025 3.9906222 A 7 7 0 0 0 2.4407961 4.0366142 L 2.4407961 4.2319511 L 2.4397625 4.4980847 L 2.8485231 4.7347628 L 3.2578005 4.499635 L 3.2583172 4.2340182 L 3.258834 4.0118095 L 2.8505902 3.7746147 z M 3.7244386 3.7766818 L 3.3151613 4.0118095 L 3.3146445 4.0443657 L 3.3141278 4.2340182 L 3.313611 4.4675957 L 3.313611 4.499635 L 3.3415163 4.5161715 L 3.6944663 4.7208102 L 3.7223716 4.7368299 L 3.7502769 4.7208102 L 4.1037437 4.5177218 L 4.1316489 4.5017021 L 4.1316489 4.4696627 L 4.1321657 4.2360852 L 4.1326825 4.045916 L 4.1326825 4.0138766 L 3.7244386 3.7766818 z M 4.5982871 3.7787488 L 4.188493 4.0138766 L 4.1879762 4.2360852 L 4.1874595 4.5017021 L 4.5962201 4.7388969 L 5.0054974 4.5037692 L 5.0060142 4.2381523 L 5.0065309 4.0159436 L 4.5982871 3.7787488 z M 5.4721356 3.7808159 L 5.0628582 4.0159436 L 5.0623415 4.0484998 L 5.0618247 4.2381523 L 5.061308 4.4717298 L 5.061308 4.5037692 L 5.0892132 4.5203056 L 5.4421633 4.7244275 L 5.4700685 4.740964 L 5.4979738 4.7249443 L 5.8514406 4.5218559 L 5.8793459 4.5058362 L 5.8793459 4.4732801 L 5.8798626 4.2402193 L 5.8803794 4.0500501 L 5.8803794 4.0180107 L 5.4721356 3.7808159 z M 6.3459841 3.7828829 L 5.9361899 4.0180107 L 5.9356732 4.2402193 L 5.9351564 4.5058362 L 6.343917 4.743031 L 6.7531943 4.5079033 L 6.7537111 4.2417696 L 6.7542279 4.019561 L 6.3459841 3.7828829 z M 7.2198325 3.78495 L 6.8100384 4.0200777 L 6.8100384 4.0521171 L 6.8095217 4.2422864 L 6.8090049 4.4753471 L 6.8090049 4.5079033 L 6.8369102 4.523923 L 7.1893434 4.7285616 L 7.2177655 4.7450981 L 7.2456707 4.7285616 L 7.6270428 4.5094536 L 7.6270428 4.4774142 L 7.6275596 4.2438367 L 7.6280763 4.0541842 L 7.6280763 4.021628 L 7.2198325 3.78495 z M 8.093681 3.787017 L 7.6838869 4.0221448 L 7.6833701 4.2443535 L 7.6828534 4.5099703 L 8.0910972 4.7466484 L 8.5008913 4.5115206 L 8.501408 4.2459038 L 8.5019248 4.0236951 L 8.093681 3.787017 z M 8.9675295 3.7885673 L 8.5577354 4.0236951 L 8.5577354 4.0562513 L 8.5572186 4.2459038 L 8.5567018 4.4794812 L 8.5567018 4.5120374 L 8.5846071 4.5280571 L 8.9370404 4.7326957 L 8.9649456 4.7487154 L 8.9933677 4.7326957 L 9.3468345 4.5296074 L 9.3747398 4.5135877 L 9.3747398 4.4815483 L 9.3752565 4.2479708 L 9.3757733 4.0583183 L 9.3757733 4.0257622 L 8.9675295 3.7885673 z M 9.8413779 3.7906344 L 9.4315838 4.0257622 L 9.4310671 4.2479708 L 9.4305503 4.5135877 L 9.8387941 4.7507825 L 10.248588 4.5156547 L 10.249105 4.2500379 L 10.249622 4.0278292 L 9.8413779 3.7906344 z M 10.715226 3.7927014 L 10.305432 4.0278292 L 10.305432 4.0603854 L 10.304916 4.2500379 L 10.304399 4.4836153 L 10.304399 4.5156547 L 10.332304 4.5321912 L 10.684737 4.7368299 L 10.712643 4.7528496 L 10.741065 4.7368299 L 11.094531 4.5337415 L 11.122437 4.5177218 L 11.122437 4.4851656 L 11.122953 4.2521049 L 11.12347 4.0619357 L 11.12347 4.0298963 L 10.715226 3.7927014 z M 11.589075 3.7947685 L 11.179281 4.0298963 L 11.178764 4.2521049 L 11.178247 4.5177218 L 11.586491 4.7549166 L 11.996285 4.5197888 L 11.996802 4.254172 L 11.997319 4.0319633 L 11.589075 3.7947685 z M 12.462923 3.7968356 L 12.053129 4.0319633 L 12.053129 4.0640027 L 12.052612 4.254172 L 12.052096 4.4872327 L 12.052096 4.5197888 L 12.080001 4.5358085 L 12.432434 4.7404472 L 12.46034 4.7569837 L 12.488762 4.740964 L 12.842228 4.5378756 L 12.870134 4.5218559 L 12.870134 4.4892998 L 12.87065 4.2557223 L 12.871167 4.0660698 L 12.871167 4.0335136 L 12.462923 3.7968356 z M 13.336255 3.7989026 L 12.926978 4.0340304 L 12.926461 4.256239 L 12.925944 4.5218559 L 13.334188 4.758534 L 13.743982 4.5234062 L 13.744499 4.2577893 L 13.745016 4.0474663 A 7 7 0 0 0 13.730029 4.0267957 L 13.336255 3.7989026 z M 2.3849855 4.1146456 A 7 7 0 0 0 1.9999961 4.7182263 L 2.0025799 4.7166761 L 2.3560467 4.5135877 L 2.383952 4.497568 L 2.383952 4.4655286 L 2.3844688 4.2319511 L 2.3849855 4.1146456 z M 13.800826 4.1249809 L 13.800309 4.2583061 L 13.799793 4.4913668 L 13.799793 4.523923 L 13.827698 4.5399427 L 14.180131 4.7445813 L 14.198735 4.7549166 A 7 7 0 0 0 13.800826 4.1249809 z M 2.4118573 4.5461438 L 2.0025799 4.7812716 L 2.0015464 5.2535942 L 2.0294517 5.2696139 L 2.3818849 5.4742526 L 2.4097902 5.490789 L 2.4376955 5.4747693 L 2.7911623 5.2716809 L 2.8056317 5.2634127 L 2.8190676 5.2556612 L 2.8201011 4.7833387 L 2.7921958 4.767319 L 2.4397625 4.5626803 L 2.4118573 4.5461438 z M 3.2857057 4.5482109 L 3.2578005 4.5642306 L 2.9043337 4.767319 L 2.8764284 4.7833387 L 2.8748781 5.2556612 L 2.9033001 5.2716809 L 3.2557334 5.4763196 L 3.2836387 5.4928561 L 3.311544 5.4768364 L 3.6650107 5.273748 L 3.692916 5.2577283 L 3.692916 5.2251721 L 3.6939496 4.8174451 L 3.6939496 4.7854057 L 3.2857057 4.5482109 z M 4.1595542 4.5502779 L 3.7502769 4.7854057 L 3.7487266 5.2572115 L 3.7771486 5.273748 L 4.1295819 5.4783867 L 4.1574871 5.4944064 L 4.1853924 5.4783867 L 4.5388592 5.2758151 L 4.5471274 5.2711642 L 4.5533286 5.2675468 L 4.5667645 5.2592786 L 4.567798 4.7874728 L 4.5398927 4.7709363 L 4.1874595 4.5662976 L 4.1595542 4.5502779 z M 5.0334027 4.552345 L 5.0054974 4.5683647 L 4.6520306 4.7714531 L 4.6241253 4.7874728 L 4.622575 5.2597954 L 4.6504803 5.2758151 L 5.0034303 5.4804537 L 5.0313356 5.4964734 L 5.0592409 5.4804537 L 5.4127077 5.2773653 L 5.440613 5.2613457 L 5.440613 5.2293063 L 5.4416465 4.8215792 L 5.4416465 4.7895398 L 5.0334027 4.552345 z M 5.9072511 4.5544121 L 5.497457 4.7895398 L 5.4964235 5.2613457 L 5.5243288 5.2778821 L 5.8772788 5.4825208 L 5.9051841 5.4985405 L 5.9330894 5.4825208 L 6.2865562 5.2794324 L 6.3010256 5.2711642 L 6.3144614 5.2634127 L 6.315495 4.7910901 L 6.2875897 4.7750704 L 5.9351564 4.5704318 L 5.9072511 4.5544121 z M 6.7810996 4.5559624 L 6.7531943 4.5724988 L 6.3997275 4.7750704 L 6.3713055 4.7916069 L 6.370272 5.2634127 L 6.3981773 5.2799492 L 6.7511273 5.4845878 L 6.7790326 5.5006075 L 6.8069378 5.4845878 L 7.1604046 5.2814995 L 7.1883099 5.2654798 L 7.1883099 5.2329236 L 7.1893434 4.8257133 L 7.1893434 4.7931572 L 6.7810996 4.5559624 z M 7.6549481 4.5580294 L 7.245154 4.7931572 L 7.2441205 5.2654798 L 7.2720257 5.2820162 L 7.6249758 5.4866549 L 7.652881 5.5026746 L 7.6807863 5.4866549 L 8.0342531 5.2835665 L 8.0621584 5.2675468 L 8.0631919 4.7952242 L 8.0352866 4.7792045 L 7.6828534 4.5745659 L 7.6549481 4.5580294 z M 8.5287966 4.5600965 L 8.5008913 4.5761162 L 8.1474245 4.7792045 L 8.1190024 4.7952242 L 8.1179689 5.2675468 L 8.1458742 5.2835665 L 8.4988242 5.4882052 L 8.5267295 5.5047416 L 8.5546348 5.488722 L 8.9081016 5.2856336 L 8.9360068 5.2696139 L 8.9360068 5.2370577 L 8.9370404 4.8293307 L 8.9370404 4.7972913 L 8.5287966 4.5600965 z M 9.402645 4.5621635 L 8.9928509 4.7972913 L 8.9918174 5.2696139 L 9.0197227 5.2856336 L 9.3726727 5.4902722 L 9.4000612 5.5068087 L 9.400578 5.5068087 L 9.4284832 5.4902722 L 9.78195 5.2877006 L 9.7902183 5.2830498 L 9.7964194 5.2794324 L 9.8098553 5.2711642 L 9.8108888 4.7993583 L 9.7829836 4.7828219 L 9.4305503 4.5781832 L 9.402645 4.5621635 z M 10.276493 4.5642306 L 10.248588 4.5802503 L 9.8951214 4.7833387 L 9.8666994 4.7993583 L 9.8656659 5.2716809 L 9.8935711 5.2877006 L 10.246004 5.4923393 L 10.274426 5.508359 L 10.302332 5.4923393 L 10.655799 5.2892509 L 10.683704 5.2732312 L 10.683704 5.2411918 L 10.684737 4.8334648 L 10.684737 4.8014254 L 10.276493 4.5642306 z M 11.150342 4.5662976 L 10.740548 4.8014254 L 10.739514 5.273748 L 10.76742 5.2897677 L 11.119853 5.4944064 L 11.148275 5.5104261 L 11.17618 5.4944064 L 11.529647 5.291318 L 11.544116 5.2830498 L 11.557552 5.2752983 L 11.558586 4.8029757 L 11.530681 4.786956 L 11.178247 4.5823173 L 11.150342 4.5662976 z M 12.02419 4.5683647 L 11.995768 4.5843844 L 11.642302 4.7874728 L 11.614396 4.8034925 L 11.613363 5.2752983 L 11.641268 5.2918347 L 11.993701 5.4964734 L 12.021607 5.5124931 L 12.050029 5.4964734 L 12.403495 5.293385 L 12.431401 5.2773653 L 12.431401 5.245326 L 12.432434 4.8375989 L 12.432434 4.8050428 L 12.02419 4.5683647 z M 12.898039 4.569915 L 12.488245 4.8055595 L 12.487211 5.2773653 L 12.515117 5.2939018 L 12.86755 5.4985405 L 12.895455 5.5145602 L 12.923877 5.4985405 L 13.277344 5.2954521 L 13.305249 5.2794324 L 13.306283 4.8071098 L 13.278377 4.7910901 L 12.925944 4.5864514 L 12.898039 4.569915 z M 13.771887 4.571982 L 13.743465 4.5880017 L 13.389999 4.7910901 L 13.362093 4.8071098 L 13.36106 5.2794324 L 13.388965 5.2954521 L 13.741398 5.5000908 L 13.769304 5.5166272 L 13.797726 5.5006075 L 14.151192 5.2975192 L 14.179098 5.2814995 L 14.179098 5.2489433 L 14.180131 4.8412163 L 14.180131 4.8091769 L 13.771887 4.571982 z M 1.9462526 4.8148613 A 7 7 0 0 0 1.6511802 5.4225761 L 1.9173138 5.2696139 L 1.9452191 5.2535942 L 1.9452191 5.221038 L 1.9462526 4.8148613 z M 14.235942 4.8226127 L 14.234908 5.2814995 L 14.262813 5.2975192 L 14.542383 5.4597832 A 7 7 0 0 0 14.235942 4.8226127 z M 1.9731244 5.30217 L 1.6155234 5.5073255 A 7 7 0 0 0 1.6155234 5.5078422 A 7 7 0 0 0 1.563847 5.6375501 L 1.563847 5.6380668 L 1.5633302 5.7595065 L 1.5628135 5.9925672 L 1.5628135 6.0251233 L 1.5907188 6.041143 L 1.943152 6.2457817 L 1.9710573 6.2623181 L 1.9989626 6.2462985 L 2.3524294 6.0432101 L 2.3803346 6.0271904 L 2.3803346 5.9946342 L 2.3813682 5.7610568 L 2.3813682 5.5714042 L 2.3813682 5.5388481 L 1.9731244 5.30217 z M 2.8469728 5.3042371 L 2.4376955 5.5393649 L 2.4371787 5.7615735 L 2.436662 6.0271904 L 2.8449058 6.2638684 L 3.2541831 6.0287407 L 3.2546999 5.7631238 L 3.2552166 5.5409152 L 2.8469728 5.3042371 z M 3.7208213 5.3057874 L 3.311544 5.5409152 L 3.311544 5.5734713 L 3.3110272 5.7636406 L 3.3105104 5.9967013 L 3.3105104 6.0292574 L 3.3384157 6.0452771 L 3.690849 6.2499158 L 3.7187542 6.2659355 L 3.7466595 6.2499158 L 4.1001263 6.0468274 L 4.1280316 6.0308077 L 4.1280316 5.9987683 L 4.1285483 5.7651909 L 4.1290651 5.5755384 L 4.1290651 5.5429822 L 3.7208213 5.3057874 z M 4.5946698 5.3078544 L 4.1853924 5.5429822 L 4.1848757 5.7651909 L 4.1843589 6.0313245 L 4.5926027 6.2680026 L 5.0018801 6.0328748 L 5.0023968 5.7672579 L 5.0029136 5.5450493 L 4.5946698 5.3078544 z M 5.4685182 5.3099215 L 5.0592409 5.5450493 L 5.0587241 5.5776054 L 5.0587241 5.7672579 L 5.0582074 6.0008354 L 5.0582074 6.0328748 L 5.0861126 6.0494112 L 5.4385459 6.2540499 L 5.4664512 6.2700696 L 5.4943565 6.2540499 L 5.8478232 6.0509615 L 5.8757285 6.0349418 L 5.8757285 6.0023857 L 5.8762453 5.769325 L 5.8767621 5.5791557 L 5.8767621 5.5471163 L 5.4685182 5.3099215 z M 6.3423667 5.3119886 L 5.9330894 5.5471163 L 5.9325726 5.769325 L 5.9315391 6.0349418 L 6.3402996 6.2721367 L 6.749577 6.0370089 L 6.7500938 5.771392 L 6.7506105 5.5491834 L 6.3423667 5.3119886 z M 7.2162152 5.3140556 L 6.8069378 5.5491834 L 6.8064211 5.5812228 L 6.8064211 5.771392 L 6.8059043 6.0049695 L 6.8059043 6.0370089 L 6.8338096 6.0530286 L 7.1862428 6.2576673 L 7.2141481 6.2742037 L 7.2420534 6.258184 L 7.5955202 6.0550957 L 7.6234255 6.039076 L 7.6234255 6.0065198 L 7.6239422 5.7734591 L 7.624459 5.5832898 L 7.624459 5.5512504 L 7.2162152 5.3140556 z M 8.0900636 5.3161227 L 7.6807863 5.5512504 L 7.6802695 5.7734591 L 7.679236 6.039076 L 8.0879966 6.2762708 L 8.4972739 6.041143 L 8.4977907 5.7750094 L 8.4983075 5.5528007 L 8.0900636 5.3161227 z M 8.9639121 5.317673 L 8.5546348 5.5533175 L 8.554118 5.5853569 L 8.554118 5.7755262 L 8.5536012 6.0085869 L 8.5530845 6.041143 L 8.5809898 6.0571627 L 8.9339398 6.2618014 L 8.9618451 6.2778211 L 8.9897503 6.2618014 L 9.3432171 6.058713 L 9.3711224 6.0426933 L 9.3711224 6.0106539 L 9.3716392 5.7770764 L 9.3721559 5.5874239 L 9.3721559 5.5548678 L 8.9639121 5.317673 z M 9.8377606 5.31974 L 9.4279665 5.5548678 L 9.4279665 5.7770764 L 9.426933 6.0432101 L 9.8356935 6.2798881 L 10.244971 6.0447604 L 10.245488 5.7791435 L 10.246004 5.5569348 L 9.8377606 5.31974 z M 10.711609 5.3218071 L 10.302332 5.5569348 L 10.301815 5.589491 L 10.301815 5.7791435 L 10.300781 6.012721 L 10.300781 6.0447604 L 10.328687 6.0612968 L 10.681637 6.2659355 L 10.709542 6.2819552 L 10.737447 6.2659355 L 11.090914 6.0628471 L 11.118819 6.0468274 L 11.118819 6.0142713 L 11.119336 5.7812106 L 11.119853 5.5910413 L 11.119853 5.5590019 L 10.711609 5.3218071 z M 11.585458 5.3238741 L 11.175663 5.5590019 L 11.175663 5.7812106 L 11.17463 6.0468274 L 11.58339 6.2840222 L 11.992668 6.0488945 L 11.993185 5.7832776 L 11.993701 5.561069 L 11.585458 5.3238741 z M 12.459306 5.3259412 L 12.049512 5.561069 L 12.049512 5.5931083 L 12.048995 5.7832776 L 12.048478 6.0168551 L 12.048478 6.0488945 L 12.076384 6.0649142 L 12.429334 6.2695528 L 12.457239 6.2860893 L 12.485144 6.2700696 L 12.838611 6.0669812 L 12.866516 6.0509615 L 12.866516 6.0184054 L 12.867033 5.7853447 L 12.86755 5.5951754 L 12.86755 5.563136 L 12.459306 5.3259412 z M 13.333154 5.3280082 L 12.92336 5.563136 L 12.922844 5.7853447 L 12.922327 6.0509615 L 13.331087 6.2881564 L 13.740365 6.0530286 L 13.740882 5.786895 L 13.741398 5.5646863 L 13.333154 5.3280082 z M 14.207003 5.3300753 L 13.797209 5.5652031 L 13.797209 5.5972425 L 13.796692 5.7874117 L 13.796175 6.0204724 L 13.796175 6.0530286 L 13.824081 6.0690483 L 14.176514 6.273687 L 14.204936 6.2897067 L 14.232841 6.273687 L 14.614213 6.0545789 L 14.614213 6.0225395 L 14.61473 5.788962 L 14.615247 5.6401339 A 7 7 0 0 0 14.615247 5.6396171 A 7 7 0 0 0 14.577523 5.5450493 L 14.207003 5.3300753 z M 14.670541 5.7879285 L 14.670541 5.7894788 L 14.670024 6.0550957 L 14.781128 6.1191744 A 7 7 0 0 0 14.670541 5.7879285 z M 1.5075197 5.7884453 A 7 7 0 0 0 1.408301 6.0814506 L 1.5064862 6.0251233 L 1.5075197 5.7884453 z M 1.5343914 6.0736992 L 1.5064862 6.0897189 L 1.384013 6.1599988 A 7 7 0 0 0 1.2176149 6.8354098 L 1.5044191 7.0018079 L 1.5323244 7.0178276 L 1.5602297 7.0018079 L 1.9136965 6.7987195 L 1.9421185 6.7826998 L 1.9421185 6.7506604 L 1.9426353 6.3429334 L 1.943152 6.3103772 L 1.5343914 6.0736992 z M 2.4082399 6.0752495 L 1.9989626 6.310894 L 1.997929 6.7826998 L 2.0258343 6.7992363 L 2.3782676 7.0038749 L 2.4061729 7.0198946 L 2.4340781 7.0038749 L 2.7875449 6.8007866 L 2.8020143 6.7925183 L 2.8154502 6.7847669 L 2.8170005 6.3124443 L 2.7890952 6.2964246 L 2.4361452 6.0917859 L 2.4082399 6.0752495 z M 3.2820884 6.0773165 L 3.2541831 6.0933362 L 2.9007163 6.2964246 L 2.872811 6.3124443 L 2.8717775 6.7847669 L 2.8996828 6.8013033 L 3.2521161 7.0054252 L 3.2800213 7.0219617 L 3.3079266 7.005942 L 3.6613934 6.8028536 L 3.6634605 6.8018201 L 3.6892987 6.7868339 L 3.6898154 6.7542778 L 3.6903322 6.3470675 L 3.690849 6.3145113 L 3.2820884 6.0773165 z M 4.1559369 6.0793836 L 3.7466595 6.3145113 L 3.745626 6.7868339 L 3.7735313 6.8028536 L 4.1259645 7.0074923 L 4.1538698 7.0240288 L 4.1817751 7.0080091 L 4.5352419 6.8049207 L 4.5497113 6.7966525 L 4.5631471 6.788901 L 4.5646974 6.3165784 L 4.5362754 6.3000419 L 4.1838421 6.09592 L 4.1559369 6.0793836 z M 4.5352419 6.8049207 L 4.5910524 6.8374768 L 4.5910524 6.8369601 L 4.5352419 6.8049207 z M 4.5910524 6.8374768 L 4.1817751 7.0726046 L 4.1812583 7.2948133 L 4.1807415 7.5604301 L 4.5889854 7.7971082 L 4.9982627 7.5619804 L 4.9992962 7.2963636 L 4.999813 7.0741549 L 4.5910524 6.8374768 z M 5.0297853 6.0814506 L 5.0018801 6.0974703 L 4.6484133 6.3005587 L 4.620508 6.3165784 L 4.6194745 6.788901 L 4.6473797 6.8049207 L 4.999813 7.0095594 L 5.0277183 7.0260958 L 5.0556235 7.0095594 L 5.4369956 6.7904513 L 5.4375124 6.7584119 L 5.4380291 6.3506848 L 5.4380291 6.3186455 L 5.0297853 6.0814506 z M 5.9036338 6.0835177 L 5.4943565 6.3186455 L 5.4933229 6.790968 L 5.5212282 6.8069877 L 5.8736615 7.0116264 L 5.9015667 7.0276461 L 5.929472 7.0116264 L 6.2829388 6.808538 L 6.3108441 6.7925183 L 6.3118776 6.3207125 L 6.2839723 6.3041761 L 5.9315391 6.0995374 L 5.9036338 6.0835177 z M 6.7774823 6.0855847 L 6.749577 6.1016044 L 6.3961102 6.3046928 L 6.3682049 6.3207125 L 6.3671714 6.7930351 L 6.3950767 6.8090548 L 6.7475099 7.0136935 L 6.7754152 7.0297132 L 6.8033205 7.0136935 L 7.1567873 6.8106051 L 7.1588543 6.8095716 L 7.1846926 6.7945854 L 7.1846926 6.762546 L 7.1857261 6.354819 L 7.1857261 6.3222628 L 6.7774823 6.0855847 z M 7.6513307 6.0876518 L 7.2420534 6.3227796 L 7.2410199 6.7945854 L 7.2689251 6.8111219 L 7.6213584 7.0157605 L 7.6492637 7.0317802 L 7.677169 7.0157605 L 8.0306357 6.8126721 L 8.0451052 6.8044039 L 8.058541 6.7966525 L 8.0595746 6.3243299 L 8.0316693 6.3083102 L 7.679236 6.1036715 L 7.6513307 6.0876518 z M 8.5251792 6.0892021 L 8.4972739 6.1057386 L 8.1438071 6.3083102 L 8.1159019 6.3243299 L 8.1148683 6.7966525 L 8.1427736 6.8131889 L 8.4952069 7.0178276 L 8.5231121 7.0338473 L 8.5510174 7.0178276 L 8.9044842 6.8147392 L 8.9323895 6.7987195 L 8.9323895 6.7661634 L 8.933423 6.3589531 L 8.933423 6.3263969 L 8.5251792 6.0892021 z M 9.3990277 6.0912692 L 8.9897503 6.3263969 L 8.9887168 6.7987195 L 9.0166221 6.8147392 L 9.3690553 7.0193779 L 9.3969606 7.0359143 L 9.4248659 7.0198946 L 9.7783327 6.8168063 L 9.7928021 6.808538 L 9.806238 6.8007866 L 9.8072715 6.328464 L 9.7793662 6.3124443 L 9.426933 6.1078056 L 9.3990277 6.0912692 z M 10.272876 6.0933362 L 10.244971 6.1093559 L 9.8915041 6.3124443 L 9.8635988 6.328464 L 9.8625653 6.8007866 L 9.8904705 6.8168063 L 10.242904 7.0214449 L 10.270809 7.0379814 L 10.298714 7.0214449 L 10.652181 6.8188733 L 10.680086 6.8028536 L 10.680086 6.7702975 L 10.68112 6.3625704 L 10.68112 6.330531 L 10.272876 6.0933362 z M 11.146725 6.0954033 L 10.737447 6.330531 L 10.735897 6.8023369 L 10.735897 6.8028536 L 10.764319 6.8188733 L 11.116752 7.023512 L 11.144658 7.0395317 L 11.172563 7.023512 L 11.52603 6.8209404 L 11.52603 6.8204236 L 11.540499 6.8121554 L 11.553935 6.8044039 L 11.554968 6.3325981 L 11.527063 6.3160616 L 11.17463 6.111423 L 11.146725 6.0954033 z M 11.540499 6.8121554 L 11.534298 6.8162895 L 11.540499 6.8126721 L 11.540499 6.8121554 z M 12.020573 6.0974703 L 11.992668 6.11349 L 11.639201 6.3165784 L 11.611296 6.3325981 L 11.609745 6.8044039 L 11.609745 6.8049207 L 11.638167 6.8209404 L 11.990601 7.025579 L 12.018506 7.0415987 L 12.046411 7.025579 L 12.399878 6.8224907 L 12.427783 6.806471 L 12.427783 6.7744316 L 12.428817 6.3667045 L 12.428817 6.3341484 L 12.020573 6.0974703 z M 12.894422 6.0995374 L 12.484627 6.3346652 L 12.483594 6.806471 L 12.512016 6.8230074 L 12.864449 7.0276461 L 12.892354 7.0436658 L 12.92026 7.0276461 L 13.273727 6.8245577 L 13.288196 6.8162895 L 13.301632 6.808538 L 13.302665 6.3362154 L 13.27476 6.3201957 L 12.922327 6.1155571 L 12.894422 6.0995374 z M 13.76827 6.1010877 L 13.740365 6.1176241 L 13.386898 6.3201957 L 13.358476 6.3367322 L 13.357442 6.808538 L 13.385348 6.8250745 L 13.738298 7.0297132 L 13.766203 7.0457329 L 13.794108 7.0297132 L 14.147575 6.8266248 L 14.17548 6.8106051 L 14.17548 6.7780489 L 14.176514 6.3708387 L 14.176514 6.3382825 L 13.76827 6.1010877 z M 14.642118 6.1031547 L 14.232324 6.3382825 L 14.231291 6.8106051 L 14.259196 6.8271415 L 14.612146 7.0312635 L 14.640051 7.0477999 L 14.667957 7.0317802 L 14.965096 6.861248 A 7 7 0 0 0 14.804899 6.1982394 A 7 7 0 0 0 14.804899 6.1977226 L 14.670024 6.1196912 L 14.642118 6.1031547 z M 1.969507 6.8312757 L 1.5602297 7.0664034 L 1.5602297 7.0989596 L 1.5597129 7.2886121 L 1.5591961 7.5221896 L 1.5591961 7.554229 L 1.5871014 7.5707654 L 1.9395347 7.7748873 L 1.9674399 7.7914238 L 1.9953452 7.7754041 L 2.348812 7.5723157 L 2.3767173 7.556296 L 2.3772341 7.556296 L 2.3772341 7.5237399 L 2.3777508 7.2906791 L 2.3782676 7.1005099 L 2.3782676 7.0684705 L 1.969507 6.8312757 z M 2.8433555 6.8333427 L 2.4340781 7.0684705 L 2.4335614 7.2906791 L 2.4330446 7.556296 L 2.8412884 7.7934908 L 3.2510825 7.5583631 L 3.2515993 7.2922294 L 3.2521161 7.0700208 L 2.8433555 6.8333427 z M 3.7172039 6.8354098 L 3.3079266 7.0705375 L 3.3079266 7.1025769 L 3.3074098 7.2927462 L 3.3068931 7.5258069 L 3.3068931 7.5583631 L 3.3347983 7.5743828 L 3.6872316 7.7790214 L 3.7151369 7.7955579 L 3.7430422 7.7790214 L 4.096509 7.5764498 L 4.124931 7.5599134 L 4.124931 7.527874 L 4.1254478 7.2942965 L 4.1259645 7.104644 L 4.1259645 7.0720878 L 3.7172039 6.8354098 z M 5.4649009 6.8390271 L 5.0556235 7.0741549 L 5.0556235 7.106711 L 5.0551068 7.2963636 L 5.05459 7.529941 L 5.05459 7.5624972 L 5.0824953 7.5785169 L 5.4349286 7.7831555 L 5.4628338 7.7991752 L 5.4907391 7.7831555 L 5.8442059 7.5800672 L 5.8721112 7.5640475 L 5.8726279 7.5320081 L 5.8731447 7.2984306 L 5.8731447 7.1087781 L 5.8736615 7.076222 L 5.4649009 6.8390271 z M 6.3387494 6.8410942 L 5.929472 7.076222 L 5.9289552 7.2984306 L 5.9284385 7.5640475 L 6.3366823 7.8012423 L 6.7459596 7.5661145 L 6.7469932 7.3004977 L 6.7475099 7.078289 L 6.3387494 6.8410942 z M 7.2125978 6.8431612 L 6.8033205 7.078289 L 6.8033205 7.1108452 L 6.8028037 7.3004977 L 6.802287 7.5340751 L 6.802287 7.5661145 L 6.8301922 7.582651 L 7.1826255 7.7872897 L 7.2105308 7.8033094 L 7.238436 7.7872897 L 7.5919028 7.5842013 L 7.6198081 7.5681816 L 7.6203249 7.5356254 L 7.6208416 7.3025647 L 7.6208416 7.1123955 L 7.6208416 7.0803561 L 7.2125978 6.8431612 z M 8.0864463 6.8452283 L 7.677169 7.0803561 L 7.6766522 7.3025647 L 7.6761354 7.5681816 L 8.0843792 7.8053764 L 8.4936566 7.5702486 L 8.4946901 7.3046318 L 8.4952069 7.0824231 L 8.0864463 6.8452283 z M 8.9602948 6.8472954 L 8.5510174 7.0824231 L 8.5510174 7.1144625 L 8.5505007 7.3046318 L 8.5499839 7.5376925 L 8.5499839 7.5702486 L 8.5778892 7.5862683 L 8.9303224 7.790907 L 8.9582277 7.8074435 L 8.986133 7.790907 L 9.3395998 7.5883354 L 9.3675051 7.5723157 L 9.3675051 7.5397596 L 9.3685386 7.3061821 L 9.3685386 7.1165296 L 9.3690553 7.0839734 L 8.9602948 6.8472954 z M 9.8341432 6.8493624 L 9.4248659 7.0844902 L 9.4243491 7.3066988 L 9.4238324 7.5723157 L 9.8320762 7.8089938 L 10.241354 7.573866 L 10.242387 7.3082491 L 10.242387 7.0860405 L 9.8341432 6.8493624 z M 10.707992 6.8509127 L 10.298714 7.0865572 L 10.298714 7.1185966 L 10.298198 7.3087659 L 10.297681 7.5418266 L 10.297681 7.5743828 L 10.325586 7.5904025 L 10.678019 7.7950411 L 10.705925 7.8110608 L 10.73383 7.7950411 L 11.087297 7.5919527 L 11.115202 7.5759331 L 11.115202 7.5438937 L 11.115719 7.3103162 L 11.116236 7.1206637 L 11.116236 7.0881075 L 10.707992 6.8509127 z M 11.58184 6.8529798 L 11.172563 7.0881075 L 11.172046 7.3103162 L 11.171529 7.5759331 L 11.579773 7.8131279 L 11.98905 7.5780001 L 11.989567 7.3123832 L 11.990084 7.0901746 L 11.58184 6.8529798 z M 12.455689 6.8550468 L 12.046411 7.0901746 L 12.046411 7.1227307 L 12.045895 7.3123832 L 12.045378 7.5459607 L 12.045378 7.5780001 L 12.073283 7.5945366 L 12.425716 7.7991752 L 12.453622 7.8151949 L 12.481527 7.7991752 L 12.834994 7.5960869 L 12.862899 7.5800672 L 12.862899 7.547511 L 12.863416 7.3144503 L 12.863932 7.124281 L 12.863932 7.0922416 L 12.455689 6.8550468 z M 13.329537 6.8571139 L 12.92026 7.0922416 L 12.919743 7.3144503 L 12.918709 7.5800672 L 12.918709 7.6446627 L 12.919226 7.5800672 L 13.32747 7.817262 L 13.736747 7.5821342 L 13.737264 7.3165174 L 13.737781 7.0943087 L 13.329537 6.8571139 z M 12.918709 7.6446627 L 12.890804 7.628643 L 12.481527 7.8637708 L 12.480493 8.3360934 L 12.508399 8.3521131 L 12.860832 8.5567517 L 12.888737 8.5727714 L 12.916642 8.5567517 L 13.298014 8.3376437 L 13.299048 7.8653211 L 13.271143 7.8493014 L 12.918709 7.6446627 z M 14.203386 6.8591809 L 13.794108 7.0943087 L 13.793591 7.1263481 L 13.793591 7.3165174 L 13.793075 7.5495781 L 13.792558 7.5821342 L 13.82098 7.5981539 L 14.173413 7.8027926 L 14.201319 7.819329 L 14.229224 7.8033094 L 14.582691 7.600221 L 14.610596 7.5842013 L 14.610596 7.5516451 L 14.611113 7.3180677 L 14.611629 7.1284152 L 14.611629 7.095859 L 14.203386 6.8591809 z M 1.2067629 6.8938041 A 7 7 0 0 0 1.0997927 7.7857394 L 1.5033856 7.554229 L 1.5039024 7.2886121 L 1.5044191 7.0664034 L 1.2067629 6.8938041 z M 14.975948 6.9196424 L 14.667957 7.0963758 L 14.66744 7.3185844 L 14.666406 7.5842013 L 15.0731 7.8203626 A 7 7 0 0 0 14.975948 6.9196424 z M 1.5312909 7.6028048 L 1.5028688 7.6188245 L 1.149402 7.8219129 L 1.1214968 7.8379326 L 1.1204632 8.3102552 L 1.1483685 8.3262749 L 1.5008018 8.5309135 L 1.528707 8.5469332 L 1.5571291 8.5309135 L 1.9105959 8.3278251 L 1.9385011 8.3118054 L 1.9385011 8.2797661 L 1.9395347 7.872039 L 1.9395347 7.8399996 L 1.5312909 7.6028048 z M 2.4051393 7.6048719 L 1.9953452 7.8399996 L 1.9943117 8.3123222 L 2.022217 8.3283419 L 2.3746502 8.5329806 L 2.4025555 8.5490003 L 2.4309775 8.5329806 L 2.7844443 8.3298922 L 2.8123496 8.3138725 L 2.8133831 7.8415499 L 2.7854779 7.8255302 L 2.4330446 7.6208915 L 2.4051393 7.6048719 z M 3.278471 7.6069389 L 3.2505658 7.6229586 L 2.897099 7.8255302 L 2.8691937 7.8420667 L 2.8681602 8.3138725 L 2.8960654 8.330409 L 3.2484987 8.5350476 L 3.276404 8.5510673 L 3.304826 8.5350476 L 3.6582928 8.3319593 L 3.6861981 8.3159396 L 3.6861981 8.2833834 L 3.6872316 7.8761731 L 3.6872316 7.843617 L 3.278471 7.6069389 z M 4.1523195 7.6084892 L 3.7430422 7.843617 L 3.7420086 8.3159396 L 3.7699139 8.332476 L 4.1223472 8.5371147 L 4.1502524 8.5531344 L 4.1786745 8.5371147 L 4.5316245 8.3340263 L 4.5352419 8.3319593 L 4.5466107 8.3257581 L 4.5600466 8.3180066 L 4.5610801 7.845684 L 4.5331748 7.8296643 L 4.1807415 7.6250257 L 4.1523195 7.6084892 z M 5.026168 7.6105563 L 4.9982627 7.626576 L 4.6447959 7.8296643 L 4.6168906 7.845684 L 4.6158571 8.3180066 L 4.6437624 8.3340263 L 4.9961956 8.538665 L 5.0241009 8.5552014 L 5.0520062 8.5391818 L 5.405473 8.3360934 L 5.433895 8.3200737 L 5.433895 8.2875175 L 5.4349286 7.8797905 L 5.4349286 7.8477511 L 5.026168 7.6105563 z M 5.9000164 7.6126233 L 5.4907391 7.8477511 L 5.4897056 8.3200737 L 5.5176108 8.3360934 L 5.8700441 8.540732 L 5.8979494 8.5572685 L 5.9258547 8.540732 L 6.2793215 8.3381604 L 6.3077435 8.321624 L 6.308777 7.8498181 L 6.2808718 7.8332817 L 5.9279217 7.628643 L 5.9000164 7.6126233 z M 6.7738649 7.6146904 L 6.7459596 7.6307101 L 6.3924928 7.8337985 L 6.3645876 7.8498181 L 6.363554 8.3221407 L 6.3914593 8.3381604 L 6.7438926 8.5427991 L 6.7717979 8.5588188 L 6.7997031 8.5427991 L 7.1531699 8.3397107 L 7.181592 8.323691 L 7.181592 8.2916516 L 7.1826255 7.8839246 L 7.1826255 7.8518852 L 6.7738649 7.6146904 z M 7.6477134 7.6167574 L 7.238436 7.8518852 L 7.2374025 8.3242078 L 7.2653078 8.3402275 L 7.6177411 8.5448662 L 7.6456463 8.5608859 L 7.6735516 8.5448662 L 8.0275352 8.3417778 L 8.0554404 8.3257581 L 8.056474 7.8534355 L 8.0285687 7.8374158 L 7.6756187 7.6327771 L 7.6477134 7.6167574 z M 8.5215619 7.6188245 L 8.4936566 7.6348442 L 8.1401898 7.8379326 L 8.1122845 7.8539523 L 8.111251 8.3257581 L 8.1391563 8.3422945 L 8.4915895 8.5469332 L 8.5194948 8.5629529 L 8.5474001 8.5469332 L 8.9008669 8.3438448 L 8.9292889 8.3278251 L 8.9292889 8.2957858 L 8.9298057 7.8880587 L 8.9303224 7.8555026 L 8.5215619 7.6188245 z M 9.3954103 7.6203748 L 8.986133 7.8560193 L 8.9850995 8.3278251 L 9.0130047 8.3443616 L 9.365438 8.5490003 L 9.3933433 8.56502 L 9.4212485 8.5490003 L 9.7747153 8.3459119 L 9.7793662 8.3433281 L 9.7891847 8.3376437 L 9.8031374 8.3298922 L 9.8041709 7.8575696 L 9.7762656 7.8415499 L 9.4233156 7.6369112 L 9.3954103 7.6203748 z M 10.269259 7.6224418 L 10.241354 7.6384615 L 9.8878867 7.8415499 L 9.8599815 7.8575696 L 9.8589479 8.3298922 L 9.8868532 8.3464287 L 10.239286 8.5505506 L 10.267192 8.567087 L 10.295097 8.5510673 L 10.648564 8.347979 L 10.650631 8.3469454 L 10.676469 8.3319593 L 10.676986 8.2994031 L 10.677503 7.8916761 L 10.677503 7.8596367 L 10.269259 7.6224418 z M 11.143107 7.6245089 L 10.73383 7.8596367 L 10.732796 8.3319593 L 10.760702 8.347979 L 11.113135 8.5526176 L 11.14104 8.5691541 L 11.168945 8.5531344 L 11.522412 8.350046 L 11.536882 8.3417778 L 11.550318 8.3340263 L 11.551868 7.8617037 L 11.523446 7.8451673 L 11.171013 7.6405286 L 11.143107 7.6245089 z M 12.016956 7.626576 L 11.98905 7.6425957 L 11.635584 7.845684 L 11.607678 7.8617037 L 11.606645 8.3340263 L 11.63455 8.350046 L 11.986983 8.5546847 L 12.014889 8.5707044 L 12.042794 8.5546847 L 12.424166 8.3355766 L 12.424683 8.3035372 L 12.4252 7.8958102 L 12.4252 7.8637708 L 12.016956 7.626576 z M 13.764653 7.6307101 L 13.736747 7.6467298 L 13.383281 7.8498181 L 13.355375 7.8658378 L 13.354342 8.3381604 L 13.382247 8.3541801 L 13.73468 8.5588188 L 13.762586 8.5748385 L 13.790491 8.5588188 L 14.143958 8.3557304 L 14.146025 8.3546969 L 14.171863 8.3397107 L 14.17238 8.3076713 L 14.172896 7.8999443 L 14.172896 7.8673881 L 13.764653 7.6307101 z M 14.638501 7.6322604 L 14.229224 7.8679049 L 14.22819 8.3397107 L 14.256096 8.3562472 L 14.608529 8.5608859 L 14.636434 8.5769055 L 14.664339 8.5608859 L 15.017806 8.3577975 L 15.032276 8.3495292 L 15.045711 8.3417778 L 15.046745 7.8694552 L 15.01884 7.8534355 L 14.666406 7.6487968 L 14.638501 7.6322604 z M 15.075167 7.863254 L 15.075167 7.8859916 L 15.074133 8.3257581 L 15.073617 8.3903536 L 14.664339 8.6254814 L 14.663823 8.8476901 L 14.663306 9.1133069 L 14.996102 9.3065768 A 7 7 0 0 0 15.08912 8.1717623 A 7 7 0 0 0 15.075167 7.863254 z M 1.0935915 7.9309501 A 7 7 0 0 0 1.0889406 8.1717623 A 7 7 0 0 0 1.092558 8.2652967 L 1.0935915 7.9309501 z M 1.0961753 8.3603813 A 7 7 0 0 0 1.175757 9.2693697 L 1.4997682 9.0833346 L 1.500285 8.8177177 L 1.5008018 8.5955091 L 1.0961753 8.3603813 z M 1.9664064 8.3603813 L 1.5566123 8.5955091 L 1.5566123 8.6280652 L 1.5560955 8.8177177 L 1.5555788 9.0512952 L 1.5555788 9.0833346 L 1.5834841 9.099871 L 1.9359173 9.3045097 L 1.9638226 9.3205294 L 1.9922446 9.3045097 L 2.3457114 9.1014213 L 2.3736167 9.0854016 L 2.3736167 9.0528455 L 2.3741335 8.8197848 L 2.3746502 8.6296155 L 2.3746502 8.5975761 L 1.9664064 8.3603813 z M 2.8402549 8.3624484 L 2.4304608 8.5975761 L 2.429944 8.8197848 L 2.4294273 9.0854016 L 2.8376711 9.3225965 L 3.2474652 9.0874687 L 3.2479819 8.8218518 L 3.2484987 8.5996432 L 2.8402549 8.3624484 z M 3.7141034 8.3645154 L 3.3043093 8.5996432 L 3.3043093 8.6316826 L 3.3037925 8.8218518 L 3.3032757 9.0554293 L 3.3032757 9.0874687 L 3.331181 9.1034884 L 3.6836143 9.3081271 L 3.7115195 9.3246635 L 3.7399416 9.3086438 L 4.0934084 9.1055554 L 4.1213136 9.0895358 L 4.1213136 9.0569796 L 4.1218304 8.8239189 L 4.1223472 8.6337496 L 4.1223472 8.6017102 L 3.7141034 8.3645154 z M 4.5879518 8.3665825 L 4.1781577 8.6017102 L 4.177641 8.8239189 L 4.1771242 9.0895358 L 4.585368 9.3267306 L 4.9951621 9.0916028 L 4.9956789 8.8254692 L 4.9961956 8.6032605 L 4.5879518 8.3665825 z M 5.4618003 8.3686495 L 5.0520062 8.6037773 L 5.0520062 8.6358167 L 5.0514894 8.825986 L 5.0509727 9.0590467 L 5.0509727 9.0916028 L 5.0788779 9.1076225 L 5.4313112 9.3122612 L 5.4592165 9.3282809 L 5.4876385 9.3122612 L 5.8411053 9.1091728 L 5.8690106 9.0931531 L 5.8690106 9.0611137 L 5.8695274 8.8275362 L 5.8700441 8.6378837 L 5.8700441 8.6053276 L 5.4618003 8.3686495 z M 6.3356488 8.3701998 L 5.9258547 8.6053276 L 5.9253379 8.8275362 L 5.9248211 9.0936699 L 6.3330649 9.3303479 L 6.7428591 9.0952202 L 6.7433758 8.8296033 L 6.7438926 8.6073946 L 6.3356488 8.3701998 z M 7.2094972 8.3722669 L 6.7997031 8.6073946 L 6.7997031 8.6399508 L 6.7991864 8.8296033 L 6.7986696 9.0631808 L 6.7986696 9.0952202 L 6.8265749 9.1117566 L 7.1790081 9.3163953 L 7.2069134 9.332415 L 7.2353355 9.3163953 L 7.5888023 9.1133069 L 7.6167075 9.0972872 L 7.6167075 9.0652478 L 7.6172243 8.8316704 L 7.6177411 8.6415011 L 7.6177411 8.6094617 L 7.2094972 8.3722669 z M 8.0833457 8.3743339 L 7.6735516 8.6094617 L 7.6730348 8.8316704 L 7.6725181 9.0972872 L 8.0807619 9.334482 L 8.490556 9.0993543 L 8.4910728 8.8337374 L 8.4915895 8.6115288 L 8.0833457 8.3743339 z M 8.9571942 8.376401 L 8.5474001 8.6115288 L 8.5474001 8.6435681 L 8.5468833 8.8337374 L 8.5463665 9.0673149 L 8.5463665 9.0993543 L 8.5742718 9.1158907 L 8.9267051 9.3200126 L 8.9546104 9.3365491 L 8.9825156 9.3205294 L 9.3359824 9.117441 L 9.3638877 9.1014213 L 9.3644045 9.0688652 L 9.3649212 8.8358045 L 9.365438 8.6456352 L 9.365438 8.6135958 L 8.9571942 8.376401 z M 9.8305259 8.378468 L 9.4212485 8.6135958 L 9.4207318 8.8358045 L 9.420215 9.1014213 L 9.8284588 9.3386162 L 10.238253 9.1034884 L 10.23877 8.8373548 L 10.239286 8.6151461 L 9.8305259 8.378468 z M 10.704374 8.3805351 L 10.295097 8.6156629 L 10.295097 8.6477023 L 10.29458 8.8378715 L 10.294063 9.0709322 L 10.294063 9.1034884 L 10.321969 9.1195081 L 10.674402 9.3241468 L 10.702307 9.3406832 L 10.730213 9.3241468 L 11.083679 9.1215751 L 11.112101 9.1050387 L 11.112101 9.0729993 L 11.112618 8.8394218 L 11.113135 8.6497693 L 11.113135 8.6172132 L 10.704374 8.3805351 z M 11.578223 8.3820854 L 11.168945 8.6177299 L 11.168429 8.8399386 L 11.167912 9.1055554 L 11.576156 9.3422335 L 11.98595 9.1071057 L 11.986467 8.8414889 L 11.986983 8.6192802 L 11.578223 8.3820854 z M 12.452071 8.3841525 L 12.042794 8.6192802 L 12.042794 8.6518364 L 12.042277 8.8414889 L 12.04176 9.0750664 L 12.04176 9.1076225 L 12.069666 9.1236422 L 12.422099 9.3282809 L 12.450004 9.3443006 L 12.47791 9.3282809 L 12.831376 9.1251925 L 12.859282 9.1091728 L 12.859798 9.0771334 L 12.860315 8.8435559 L 12.860832 8.6533867 L 12.860832 8.6213473 L 12.452071 8.3841525 z M 13.32592 8.3862195 L 12.916642 8.6213473 L 12.916126 8.8435559 L 12.915609 9.1091728 L 13.323853 9.3463676 L 13.73313 9.1112399 L 13.734164 8.845623 L 13.73468 8.6234143 L 13.32592 8.3862195 z M 14.199768 8.3882866 L 13.790491 8.6234143 L 13.790491 8.6559705 L 13.789974 8.845623 L 13.789457 9.0792005 L 13.789457 9.1112399 L 13.817363 9.1277763 L 14.169796 9.332415 L 14.197701 9.3484347 L 14.225606 9.332415 L 14.579073 9.1293266 L 14.606979 9.1133069 L 14.607495 9.0807508 L 14.608012 8.8476901 L 14.608012 8.6575208 L 14.608012 8.6254814 L 14.199768 8.3882866 z M 1.5276735 9.1319104 L 1.4997682 9.1479301 L 1.1850588 9.3287976 A 7 7 0 0 0 1.320451 9.9571831 L 1.4977012 10.060019 L 1.5256065 10.076556 L 1.5535117 10.060019 L 1.9348838 9.8409111 L 1.9348838 9.8088717 L 1.9359173 9.4011446 L 1.9359173 9.3691053 L 1.5276735 9.1319104 z M 2.401522 9.1339775 L 1.9917279 9.3691053 L 1.9906943 9.8414278 L 2.0185996 9.8574475 L 2.3715496 10.062086 L 2.3994549 10.078106 L 2.4273602 10.062086 L 2.780827 9.8589978 L 2.7952964 9.8507296 L 2.8087323 9.8429781 L 2.8097658 9.3711723 L 2.7818605 9.3546359 L 2.4294273 9.1499972 L 2.401522 9.1339775 z M 3.2753705 9.1360445 L 3.2474652 9.1520642 L 2.8939984 9.3551526 L 2.8655763 9.3711723 L 2.8645428 9.8434949 L 2.8924481 9.8595146 L 3.2453981 10.064153 L 3.2733034 10.080173 L 3.3012087 10.064153 L 3.6546755 9.8610649 L 3.6825807 9.8450452 L 3.6825807 9.8130058 L 3.6836143 9.4052788 L 3.6836143 9.3727226 L 3.2753705 9.1360445 z M 4.1492189 9.1381116 L 3.7394248 9.3732394 L 3.7383913 9.8450452 L 3.7662966 9.8615817 L 4.1192466 10.06622 L 4.1471519 10.08224 L 4.1750571 10.06622 L 4.5285239 9.8631319 L 4.5429933 9.8548637 L 4.5564292 9.8471123 L 4.5574627 9.3747897 L 4.5295575 9.35877 L 4.1771242 9.1541313 L 4.1492189 9.1381116 z M 5.0230674 9.1396619 L 4.9951621 9.1561984 L 4.6416953 9.35877 L 4.6132733 9.3747897 L 4.6122398 9.8471123 L 4.640145 9.8636487 L 4.9925783 10.068287 L 5.0210003 10.084307 L 5.0489056 10.068287 L 5.4023724 9.865199 L 5.4302777 9.8491793 L 5.4302777 9.8166232 L 5.4313112 9.4094129 L 5.4313112 9.3768567 L 5.0230674 9.1396619 z M 5.8969159 9.141729 L 5.4871218 9.3768567 L 5.4860882 9.8491793 L 5.5139935 9.865199 L 5.8664268 10.069838 L 5.8948488 10.086374 L 5.9227541 10.070354 L 6.2762209 9.8672661 L 6.2906903 9.8589978 L 6.3041261 9.8512464 L 6.3051597 9.3789238 L 6.2772544 9.3629041 L 5.9248211 9.1582654 L 5.8969159 9.141729 z M 6.7707643 9.143796 L 6.7423423 9.1598157 L 6.3888755 9.3629041 L 6.3609702 9.3789238 L 6.3599367 9.8512464 L 6.387842 9.8672661 L 6.7402752 10.071905 L 6.7686973 10.088441 L 6.7966025 10.072421 L 7.1500693 9.8693331 L 7.1779746 9.8533134 L 7.1779746 9.8207573 L 7.1790081 9.4130302 L 7.1790081 9.3809908 L 6.7707643 9.143796 z M 7.6446128 9.1458631 L 7.2348187 9.3809908 L 7.2337852 9.8533134 L 7.2616904 9.8693331 L 7.6141237 10.073972 L 7.642029 10.089991 L 7.670451 10.073972 L 8.0239178 9.8714002 L 8.032186 9.8667493 L 8.0383872 9.8631319 L 8.0518231 9.8548637 L 8.0528566 9.3830579 L 8.0249513 9.3665214 L 7.6725181 9.1618828 L 7.6446128 9.1458631 z M 8.5184613 9.1479301 L 8.4900392 9.1639498 L 8.1365724 9.3670382 L 8.1086672 9.3830579 L 8.1076336 9.8553805 L 8.1355389 9.8714002 L 8.4879722 10.076039 L 8.5158774 10.092059 L 8.5442995 10.076039 L 8.8977663 9.8729505 L 8.9256716 9.8569308 L 8.9256716 9.8248914 L 8.9267051 9.4171643 L 8.9267051 9.3846082 L 8.5184613 9.1479301 z M 9.3923097 9.1499972 L 8.9825156 9.3851249 L 8.9814821 9.8569308 L 9.0093874 9.8734672 L 9.3618206 10.078106 L 9.3897259 10.094126 L 9.418148 10.078106 L 9.7716148 9.8750175 L 9.7860842 9.8667493 L 9.79952 9.8589978 L 9.8005536 9.3866752 L 9.7726483 9.3706555 L 9.420215 9.1660169 L 9.3923097 9.1499972 z M 10.266158 9.1515475 L 10.237736 9.1680839 L 9.8842694 9.3706555 L 9.8563641 9.387192 L 9.8553306 9.8589978 L 9.8832358 9.8755343 L 10.235669 10.080173 L 10.263574 10.096193 L 10.291996 10.080173 L 10.645463 9.8770846 L 10.673368 9.8610649 L 10.673368 9.8285087 L 10.674402 9.4212985 L 10.674402 9.3887423 L 10.266158 9.1515475 z M 11.140007 9.1536145 L 10.730213 9.3887423 L 10.729179 9.8610649 L 10.757084 9.8776013 L 11.109518 10.081723 L 11.137423 10.09826 L 11.165845 10.08224 L 11.518795 9.8791516 L 11.522412 9.8770846 L 11.533781 9.8708834 L 11.547217 9.8631319 L 11.54825 9.3908094 L 11.520345 9.3747897 L 11.167912 9.170151 L 11.140007 9.1536145 z M 12.013338 9.1556816 L 11.985433 9.1717013 L 11.631966 9.3747897 L 11.604061 9.3908094 L 11.603028 9.8631319 L 11.630933 9.8791516 L 11.983366 10.08379 L 12.011271 10.100327 L 12.039693 10.084307 L 12.392643 9.8812187 L 12.421065 9.865199 L 12.421065 9.8646822 L 12.421065 9.8326429 L 12.422099 9.4249158 L 12.422099 9.3928764 L 12.013338 9.1556816 z M 12.887187 9.1577486 L 12.47791 9.3928764 L 12.476876 9.865199 L 12.504781 9.8812187 L 12.857215 10.085857 L 12.88512 10.102394 L 12.913025 10.085857 L 13.266492 9.8832858 L 13.294914 9.8667493 L 13.295947 9.3949435 L 13.268042 9.378407 L 12.915092 9.1737683 L 12.887187 9.1577486 z M 13.761035 9.1598157 L 13.73313 9.1758354 L 13.379663 9.3789238 L 13.351758 9.3949435 L 13.350724 9.8672661 L 13.37863 9.8832858 L 13.731063 10.087924 L 13.758968 10.103944 L 13.786874 10.087924 L 14.14034 9.884836 L 14.168762 9.8688164 L 14.168762 9.836777 L 14.169796 9.4290499 L 14.169796 9.3970105 L 13.761035 9.1598157 z M 14.634884 9.1618828 L 14.225606 9.3970105 L 14.224573 9.8693331 L 14.252478 9.8853528 L 14.604911 10.089991 L 14.632817 10.106011 L 14.660722 10.089991 L 14.850891 9.9809542 A 7 7 0 0 0 14.986284 9.3654879 L 14.662789 9.1779025 L 14.634884 9.1618828 z M 1.9627891 9.8894869 L 1.5535117 10.124615 L 1.552995 10.157171 L 1.552995 10.346823 L 1.4966677 10.346823 L 1.4971844 10.124615 L 1.3411216 10.034181 A 7 7 0 0 0 1.5173382 10.582985 L 1.517855 10.376796 L 1.5736655 10.376796 L 1.5731488 10.610373 L 1.5731488 10.642413 L 1.601054 10.658949 L 1.9534873 10.863588 L 1.9813926 10.879607 L 2.0092979 10.863588 L 2.3627647 10.660499 L 2.3906699 10.64448 L 2.3911867 10.64448 L 2.3911867 10.61244 L 2.3917035 10.378863 L 2.447514 10.378863 L 2.4469972 10.64448 L 2.8552411 10.881674 L 3.2650352 10.646547 L 3.2655519 10.38093 L 3.3213625 10.38093 L 3.3208457 10.614507 L 3.3208457 10.646547 L 3.348751 10.662566 L 3.7011843 10.867205 L 3.7290895 10.883741 L 3.7569948 10.867722 L 4.1104616 10.664633 L 4.1383669 10.648614 L 4.1388836 10.616058 L 4.1394004 10.382997 L 4.1952109 10.382997 L 4.1946942 10.648614 L 4.602938 10.885809 L 5.0122153 10.650681 L 5.0132489 10.384547 L 5.0690594 10.385064 L 5.0685427 10.618125 L 5.0685427 10.650681 L 5.0964479 10.6667 L 5.4488812 10.871339 L 5.4767865 10.887359 L 5.5046917 10.871339 L 5.8581585 10.668251 L 5.8860638 10.652231 L 5.8865806 10.620192 L 5.8870973 10.386614 L 5.9429079 10.387131 L 5.9423911 10.652748 L 6.3506349 10.889426 L 6.7599123 10.654298 L 6.7609458 10.388681 L 6.8167564 10.388681 L 6.8162396 10.622259 L 6.8162396 10.654298 L 6.8441449 10.670835 L 7.1965781 10.875473 L 7.2244834 10.891493 L 7.2523887 10.875473 L 7.6058555 10.672385 L 7.6337607 10.656365 L 7.6337607 10.624326 L 7.6347943 10.390748 L 7.6906048 10.390748 L 7.6900881 10.656365 L 8.0983319 10.89356 L 8.5076092 10.658432 L 8.508126 10.392815 L 8.5644533 10.392815 L 8.5639365 10.626393 L 8.5639365 10.658432 L 8.5918418 10.674969 L 8.9442751 10.879091 L 8.9721803 10.895627 L 9.0000856 10.879607 L 9.3535524 10.676519 L 9.3814577 10.660499 L 9.3814577 10.627943 L 9.3819745 10.394882 L 9.4383018 10.394882 L 9.437785 10.660499 L 9.8460288 10.897694 L 10.255306 10.662566 L 10.255823 10.396433 L 10.31215 10.396949 L 10.311633 10.63001 L 10.311633 10.662566 L 10.339539 10.678586 L 10.691972 10.883225 L 10.719877 10.899761 L 10.747783 10.883225 L 11.129155 10.664117 L 11.129155 10.632077 L 11.129671 10.3985 L 11.185999 10.399017 L 11.184965 10.664633 L 11.593726 10.901311 L 12.003003 10.666184 L 12.00352 10.400567 L 12.059847 10.400567 L 12.05933 10.634144 L 12.058814 10.6667 L 12.087236 10.68272 L 12.439669 10.887359 L 12.467574 10.903379 L 12.495479 10.887359 L 12.848946 10.68427 L 12.876852 10.668251 L 12.876852 10.636211 L 12.877368 10.402634 L 12.933696 10.402634 L 12.932662 10.668251 L 13.341423 10.905446 L 13.7507 10.670318 L 13.751217 10.404701 L 13.807544 10.404701 L 13.807027 10.638278 L 13.807027 10.670318 L 13.834416 10.686854 L 14.187366 10.891493 L 14.215271 10.907513 L 14.243176 10.891493 L 14.596643 10.688405 L 14.624549 10.672385 L 14.624549 10.639829 L 14.625065 10.406768 L 14.681393 10.406768 L 14.680876 10.526141 A 7 7 0 0 0 14.830221 10.057435 L 14.660722 10.154587 L 14.660205 10.376796 L 14.604395 10.376796 L 14.604911 10.186626 L 14.604911 10.154587 L 14.196668 9.9173922 L 13.786874 10.15252 L 13.786874 10.185076 L 13.786357 10.374729 L 13.730546 10.374729 L 13.731063 10.15252 L 13.322819 9.9153251 L 12.913025 10.150453 L 12.912508 10.372662 L 12.856698 10.372662 L 12.857215 10.183009 L 12.857215 10.150453 L 12.448971 9.9137749 L 12.039177 10.148903 L 12.039177 10.180942 L 12.03866 10.371111 L 11.982849 10.370595 L 11.983366 10.148386 L 11.575122 9.9117078 L 11.165328 10.146836 L 11.164811 10.369044 L 11.109001 10.368527 L 11.109518 10.178875 L 11.109518 10.146319 L 10.701274 9.9096407 L 10.29148 10.144769 L 10.29148 10.176808 L 10.290963 10.366977 L 10.235152 10.366977 L 10.235669 10.144769 L 9.8274253 9.9075737 L 9.4176312 10.142701 L 9.4171144 10.36491 L 9.3613039 10.36491 L 9.3618206 10.174741 L 9.3618206 10.142701 L 8.9535768 9.9055066 L 8.5437827 10.140634 L 8.5437827 10.173191 L 8.543266 10.362843 L 8.4874554 10.362843 L 8.4879722 10.140634 L 8.0797284 9.9034396 L 7.6699343 10.138567 L 7.6694175 10.360776 L 7.6136069 10.360776 L 7.6141237 10.171123 L 7.6141237 10.138567 L 7.2058799 9.9013725 L 6.7966025 10.1365 L 6.7960858 10.169056 L 6.795569 10.359226 L 6.7397585 10.358709 L 6.7402752 10.1365 L 6.3320314 9.8998222 L 5.9222373 10.13495 L 5.9217205 10.357159 L 5.86591 10.356642 L 5.8664268 10.166989 L 5.8664268 10.134433 L 5.458183 9.8977552 L 5.0483888 10.132883 L 5.0483888 10.164922 L 5.0483888 10.355092 L 4.9920615 10.355092 L 4.9925783 10.132883 L 4.5843345 9.8956881 L 4.1745404 10.130816 L 4.1745404 10.353025 L 4.1182131 10.353025 L 4.1187298 10.162855 L 4.1187298 10.130816 L 3.710486 9.893621 L 3.3012087 10.128749 L 3.3006919 10.161305 L 3.3006919 10.350957 L 3.2443646 10.350957 L 3.2448814 10.128749 L 2.8366375 9.891554 L 2.4273602 10.126682 L 2.4268434 10.34889 L 2.3705161 10.34889 L 2.3710329 10.159238 L 2.3710329 10.126682 L 1.9627891 9.8894869 z M 2.4185752 10.693055 L 2.0092979 10.928183 L 2.0082643 11.400506 L 2.0361696 11.416526 L 2.3886029 11.621164 L 2.4165081 11.637184 L 2.4444134 11.621164 L 2.798397 11.418076 L 2.8128664 11.409808 L 2.8263023 11.402056 L 2.8273358 10.93025 L 2.7994305 10.913714 L 2.4469972 10.709075 L 2.4185752 10.693055 z M 3.2924237 10.695123 L 3.2645184 10.711142 L 2.9110516 10.914231 L 2.8831463 10.93025 L 2.8821128 11.402573 L 2.9100181 11.418593 L 3.2624513 11.623231 L 3.2903566 11.639251 L 3.3182619 11.623231 L 3.6717287 11.420143 L 3.7001507 11.404123 L 3.7001507 11.372084 L 3.7011843 10.964357 L 3.7011843 10.931801 L 3.2924237 10.695123 z M 4.1662721 10.69719 L 3.7569948 10.932317 L 3.7559613 11.404123 L 3.7838665 11.42066 L 4.1362998 11.625298 L 4.1642051 11.641318 L 4.1921104 11.625298 L 4.5455772 11.42221 L 4.5476442 11.421176 L 4.5605633 11.413942 L 4.5739992 11.40619 L 4.5750327 10.933868 L 4.5471274 10.917848 L 4.1941774 10.713209 L 4.1662721 10.69719 z M 5.0401206 10.69874 L 5.0122153 10.71476 L 4.6587485 10.917848 L 4.6308433 10.934384 L 4.6298097 11.40619 L 4.657715 11.422727 L 5.0101483 11.627365 L 5.0380536 11.643385 L 5.0659588 11.627365 L 5.4194256 11.424277 L 5.4478477 11.408257 L 5.4478477 11.375701 L 5.4488812 10.968491 L 5.4488812 10.935935 L 5.0401206 10.69874 z M 1.56178 10.700807 A 7 7 0 0 0 1.8950929 11.433062 L 1.9524538 11.399989 L 1.9524538 11.36795 L 1.9534873 10.960223 L 1.9534873 10.928183 L 1.56178 10.700807 z M 5.9139691 10.700807 L 5.5046917 10.935935 L 5.5036582 11.408257 L 5.5315635 11.424277 L 5.8839968 11.628916 L 5.911902 11.645452 L 5.9398073 11.629432 L 6.2932741 11.426344 L 6.2953412 11.42531 L 6.3082603 11.418076 L 6.3216961 11.410324 L 6.3227297 10.938002 L 6.2948244 10.921982 L 5.9418744 10.717343 L 5.9139691 10.700807 z M 6.7878176 10.702874 L 6.7599123 10.718894 L 6.4064455 10.921982 L 6.3785402 10.938002 L 6.3775067 11.410324 L 6.405412 11.426344 L 6.7578452 11.630983 L 6.7857505 11.647519 L 6.8136558 11.631499 L 7.1671226 11.428411 L 7.1955446 11.412391 L 7.1955446 11.379835 L 7.1960614 10.972108 L 7.1960614 10.940069 L 6.7878176 10.702874 z M 7.661666 10.704941 L 7.2523887 10.940069 L 7.2513552 11.412391 L 7.2792604 11.428411 L 7.6316937 11.63305 L 7.659599 11.649069 L 7.6875042 11.63305 L 8.040971 11.430478 L 8.0688763 11.413942 L 8.0704266 10.942136 L 8.0425213 10.925599 L 7.6895713 10.720961 L 7.661666 10.704941 z M 8.5355145 10.707008 L 8.5076092 10.723028 L 8.1541424 10.926116 L 8.1262371 10.942136 L 8.1252036 11.414458 L 8.1531089 11.430478 L 8.5055422 11.635117 L 8.5334474 11.651137 L 8.5613527 11.635117 L 8.9148195 11.432028 L 8.9168866 11.430995 L 8.9427248 11.416009 L 8.9432415 11.383969 L 8.9437583 10.976242 L 8.9442751 10.943686 L 8.5355145 10.707008 z M 9.409363 10.709075 L 9.0000856 10.944203 L 8.9990521 11.416009 L 9.0269574 11.432545 L 9.3793906 11.637184 L 9.4072959 11.653204 L 9.4352012 11.637184 L 9.788668 11.434095 L 9.8031374 11.425827 L 9.8165732 11.418076 L 9.8181235 10.945753 L 9.7897015 10.929734 L 9.4372682 10.725095 L 9.409363 10.709075 z M 10.283211 10.710625 L 10.255306 10.727162 L 9.9018394 10.929734 L 9.8739341 10.94627 L 9.8729006 11.418076 L 9.9008058 11.434612 L 10.253239 11.639251 L 10.281144 11.655271 L 10.30905 11.639251 L 10.662516 11.436163 L 10.664584 11.435129 L 10.690422 11.420143 L 10.690938 11.387587 L 10.691455 10.980376 L 10.691455 10.94782 L 10.283211 10.710625 z M 11.15706 10.712692 L 10.747783 10.94782 L 10.746749 11.420143 L 10.774654 11.436679 L 11.127088 11.641318 L 11.154993 11.657338 L 11.182898 11.641318 L 11.536365 11.43823 L 11.550834 11.429961 L 11.56427 11.42221 L 11.565304 10.949887 L 11.537398 10.933868 L 11.184965 10.729229 L 11.15706 10.712692 z M 12.030908 10.71476 L 12.003003 10.730779 L 11.649536 10.933868 L 11.621631 10.949887 L 11.620598 11.42221 L 11.648503 11.43823 L 12.000936 11.642868 L 12.028841 11.659405 L 12.056747 11.643385 L 12.410213 11.440297 L 12.438119 11.424277 L 12.438119 11.391721 L 12.439152 10.983994 L 12.439152 10.951954 L 12.030908 10.71476 z M 12.904757 10.716827 L 12.495479 10.951954 L 12.494446 11.424277 L 12.522351 11.440297 L 12.874785 11.644935 L 12.90269 11.661472 L 12.930595 11.644935 L 13.284062 11.442364 L 13.29233 11.437713 L 13.298531 11.434095 L 13.311967 11.425827 L 13.313001 10.954021 L 13.285095 10.937485 L 12.932662 10.732846 L 12.904757 10.716827 z M 13.778605 10.718894 L 13.7507 10.734913 L 13.397233 10.938002 L 13.369328 10.954021 L 13.368294 11.426344 L 13.3962 11.442364 L 13.748633 11.647002 L 13.776538 11.663022 L 13.804444 11.647002 L 14.15791 11.443914 L 14.159977 11.44288 L 14.185816 11.427894 L 14.185816 11.395855 L 14.186849 10.988128 L 14.186849 10.956088 L 13.778605 10.718894 z M 14.595093 10.754034 L 14.243176 10.956088 L 14.242143 11.428411 L 14.270048 11.444431 L 14.275216 11.447531 A 7 7 0 0 0 14.595093 10.754034 z M 2.8314699 11.398956 L 2.8294028 11.399989 L 2.8294028 11.400506 L 2.8314699 11.398956 z M 1.9803591 11.448565 L 1.9214479 11.482671 A 7 7 0 0 0 2.357597 12.190638 L 2.3596641 12.189605 L 2.3875693 12.173585 L 2.3875693 12.141546 L 2.3880861 11.907968 L 2.3886029 11.718316 L 2.3886029 11.68576 L 1.9803591 11.448565 z M 2.8542075 11.450632 L 2.4444134 11.68576 L 2.4438967 11.907968 L 2.4433799 12.173585 L 2.8516237 12.41078 L 3.2614178 12.175652 L 3.2619346 11.910035 L 3.2624513 11.687827 L 2.8542075 11.450632 z M 3.728056 11.452699 L 3.3182619 11.687827 L 3.3182619 11.720383 L 3.3177451 11.910035 L 3.3172284 12.143613 L 3.3172284 12.175652 L 3.3451336 12.192189 L 3.6975669 12.396827 L 3.7254722 12.412847 L 3.7538942 12.396827 L 4.107361 12.193739 L 4.1352663 12.177719 L 4.1352663 12.145163 L 4.135783 11.912102 L 4.1362998 11.721933 L 4.1362998 11.689894 L 3.728056 11.452699 z M 4.6019045 11.454766 L 4.1921104 11.689894 L 4.1915936 11.912102 L 4.1910768 12.177719 L 4.5993206 12.414914 L 5.0091148 12.179786 L 5.0096315 11.91417 L 5.0101483 11.691961 L 4.6019045 11.454766 z M 5.4757529 11.456833 L 5.0659588 11.691961 L 5.0659588 11.724 L 5.0654421 11.91417 L 5.0649253 12.14723 L 5.0649253 12.179786 L 5.0928306 12.195806 L 5.4452638 12.400445 L 5.4731691 12.416981 L 5.5010744 12.400962 L 5.8545412 12.197873 L 5.8829632 12.181853 L 5.8829632 12.149297 L 5.88348 11.91572 L 5.8839968 11.726067 L 5.8839968 11.693511 L 5.4757529 11.456833 z M 6.3496014 11.4589 L 5.9398073 11.694028 L 5.9392905 11.916237 L 5.9387738 12.181853 L 6.3470176 12.418532 L 6.7568117 12.183404 L 6.7573285 11.917787 L 6.7578452 11.695578 L 6.3496014 11.4589 z M 7.2229331 11.46045 L 6.8136558 11.696095 L 6.8136558 11.728134 L 6.813139 11.918304 L 6.8126222 12.151364 L 6.8126222 12.183921 L 6.8405275 12.19994 L 7.1929608 12.404579 L 7.2208661 12.420599 L 7.2487713 12.404579 L 7.6022381 12.201491 L 7.6306602 12.185471 L 7.6306602 12.153431 L 7.6311769 11.919854 L 7.6316937 11.730201 L 7.6316937 11.697645 L 7.2229331 11.46045 z M 8.0967816 11.462518 L 7.6875042 11.697645 L 7.6869875 11.919854 L 7.6864707 12.185471 L 8.0947145 12.422666 L 8.5045086 12.187538 L 8.5050254 11.921921 L 8.5055422 11.699712 L 8.0967816 11.462518 z M 8.9706301 11.464585 L 8.5613527 11.699712 L 8.5613527 11.732269 L 8.5608359 11.921921 L 8.5603192 12.155498 L 8.5603192 12.187538 L 8.5882245 12.204074 L 8.9406577 12.408713 L 8.968563 12.424733 L 8.9964683 12.408713 L 9.3499351 12.205625 L 9.3783571 12.189605 L 9.3783571 12.157049 L 9.3788739 11.923988 L 9.3793906 11.733819 L 9.3793906 11.701779 L 8.9706301 11.464585 z M 9.8444785 11.466652 L 9.4352012 11.701779 L 9.4346844 11.923988 L 9.4341677 12.189605 L 9.8424115 12.4268 L 10.252206 12.191672 L 10.252722 11.926055 L 10.253239 11.703846 L 9.8444785 11.466652 z M 10.718327 11.468719 L 10.30905 11.703846 L 10.30905 11.735886 L 10.308533 11.926055 L 10.308016 12.159633 L 10.308016 12.191672 L 10.335921 12.207692 L 10.688355 12.41233 L 10.71626 12.428867 L 10.744165 12.412847 L 11.097632 12.209759 L 11.125537 12.193739 L 11.126054 12.161183 L 11.126571 11.927605 L 11.127088 11.737953 L 11.127088 11.705914 L 10.718327 11.468719 z M 11.592175 11.470786 L 11.182898 11.705914 L 11.182381 11.928122 L 11.181865 12.193739 L 11.590108 12.430934 L 11.999386 12.195289 L 12.000419 11.929672 L 12.000936 11.707464 L 11.592175 11.470786 z M 12.466024 11.472336 L 12.056747 11.707981 L 12.056747 11.74002 L 12.05623 11.930189 L 12.055713 12.16325 L 12.055713 12.195806 L 12.083618 12.211826 L 12.436052 12.416464 L 12.463957 12.432484 L 12.491862 12.416464 L 12.845329 12.213376 L 12.873234 12.197356 L 12.873751 12.165317 L 12.874268 11.93174 L 12.874268 11.742087 L 12.874785 11.709531 L 12.466024 11.472336 z M 13.339872 11.474403 L 12.930595 11.709531 L 12.930078 11.93174 L 12.929562 12.197873 L 13.337805 12.434551 L 13.747083 12.199423 L 13.748116 11.933807 L 13.748633 11.711598 L 13.339872 11.474403 z M 14.213721 11.47647 L 13.804444 11.711598 L 13.804444 11.744154 L 13.803927 11.933807 L 13.80341 12.167384 L 13.80341 12.199423 L 13.811161 12.204074 A 7 7 0 0 0 14.248861 11.496624 L 14.213721 11.47647 z M 2.4154746 12.222161 L 2.3901532 12.23663 A 7 7 0 0 0 2.8232017 12.783367 L 2.8237184 12.459356 L 2.7958132 12.442819 L 2.4433799 12.238181 L 2.4154746 12.222161 z M 3.2893231 12.224228 L 3.260901 12.240248 L 2.907951 12.443336 L 2.879529 12.459356 L 2.8784955 12.846412 A 7 7 0 0 0 3.050578 13.031414 A 7 7 0 0 0 3.0510947 13.031931 L 3.258834 13.152337 L 3.287256 13.168357 L 3.3151613 13.152337 L 3.6686281 12.949248 L 3.6965334 12.933229 L 3.6965334 12.901189 L 3.6975669 12.493462 L 3.6975669 12.461423 L 3.2893231 12.224228 z M 4.1631716 12.226295 L 3.7533774 12.461423 L 3.7523439 12.933746 L 3.7802492 12.949765 L 4.1326825 13.154404 L 4.1605877 13.170424 L 4.1890098 13.154404 L 4.5424766 12.951316 L 4.556946 12.943047 L 4.5703818 12.935296 L 4.5714154 12.462973 L 4.5435101 12.446954 L 4.1910768 12.242315 L 4.1631716 12.226295 z M 5.03702 12.228362 L 5.008598 12.244382 L 4.6551312 12.44747 L 4.6272259 12.46349 L 4.6261924 12.935296 L 4.6540977 12.951832 L 5.0065309 13.156471 L 5.034953 13.172491 L 5.0628582 13.156471 L 5.416325 12.953383 L 5.4442303 12.937363 L 5.4442303 12.905324 L 5.4452638 12.497596 L 5.4452638 12.46504 L 5.03702 12.228362 z M 5.9108685 12.229913 L 5.5010744 12.465557 L 5.5000409 12.937363 L 5.5279461 12.953899 L 5.8803794 13.158538 L 5.9082847 13.174558 L 5.9367067 13.158538 L 6.2901735 12.95545 L 6.3046429 12.947181 L 6.3180788 12.93943 L 6.3191123 12.467107 L 6.291207 12.451088 L 5.9387738 12.246449 L 5.9108685 12.229913 z M 6.784717 12.23198 L 6.7562949 12.247999 L 6.4028281 12.451088 L 6.3749229 12.467107 L 6.3738893 12.93943 L 6.4017946 12.955966 L 6.7542279 13.160605 L 6.7821331 13.176625 L 6.8105552 13.160605 L 7.164022 12.957517 L 7.1919273 12.941497 L 7.1919273 12.908941 L 7.1929608 12.501214 L 7.1929608 12.469174 L 6.784717 12.23198 z M 7.6585654 12.234047 L 7.2487713 12.469174 L 7.2477378 12.941497 L 7.2756431 12.957517 L 7.6280763 13.162155 L 7.6559816 13.178692 L 7.6844037 13.162672 L 8.0378705 12.959584 L 8.0657757 12.943564 L 8.0668093 12.471241 L 8.038904 12.454705 L 7.6864707 12.250583 L 7.6585654 12.234047 z M 8.5318971 12.236114 L 8.5039919 12.252133 L 8.1505251 12.455222 L 8.1226198 12.471241 L 8.1215863 12.943564 L 8.1494915 12.959584 L 8.5019248 13.164222 L 8.5298301 13.180759 L 8.5582521 13.164222 L 8.9396242 12.945114 L 8.9396242 12.913075 L 8.9406577 12.505348 L 8.9406577 12.473309 L 8.5324139 12.236114 L 8.5318971 12.236114 z M 9.4057456 12.238181 L 8.9964683 12.473309 L 8.9954347 12.945631 L 9.02334 12.961651 L 9.3757733 13.166289 L 9.4036786 13.182309 L 9.4321006 13.166289 L 9.7855674 12.963201 L 9.8000368 12.954933 L 9.8134727 12.947181 L 9.8145062 12.474859 L 9.7866009 12.458839 L 9.4341677 12.2542 L 9.4057456 12.238181 z M 10.279594 12.240248 L 10.251689 12.256268 L 9.898222 12.459356 L 9.8703167 12.475376 L 9.8692832 12.947698 L 9.8971885 12.963718 L 10.249622 13.168357 L 10.277527 13.184376 L 10.305432 13.168357 L 10.658899 12.965268 L 10.687321 12.949248 L 10.687321 12.917209 L 10.688355 12.509482 L 10.688355 12.476926 L 10.279594 12.240248 z M 11.153443 12.242315 L 10.744165 12.477443 L 10.743132 12.949248 L 10.771037 12.965785 L 11.12347 13.170424 L 11.151375 13.186443 L 11.179281 13.170424 L 11.532748 12.967335 L 11.534815 12.966302 L 11.547734 12.959067 L 11.56117 12.951316 L 11.562203 12.478993 L 11.534298 12.462973 L 11.181348 12.258335 L 11.153443 12.242315 z M 12.027291 12.243865 L 11.999386 12.260402 L 11.645919 12.462973 L 11.618014 12.478993 L 11.61698 12.951316 L 11.644885 12.967852 L 11.997319 13.172491 L 12.025224 13.18851 L 12.053129 13.172491 L 12.406596 12.969402 L 12.435018 12.953383 L 12.435018 12.920826 L 12.436052 12.513616 L 12.436052 12.48106 L 12.027291 12.243865 z M 12.901139 12.245932 L 12.491862 12.48106 L 12.490829 12.953383 L 12.518734 12.969402 L 12.871167 13.174041 L 12.899072 13.190577 L 12.926978 13.174558 L 13.06392 13.09601 A 7 7 0 0 0 13.064437 13.095493 A 7 7 0 0 0 13.309383 12.835044 L 13.3099 12.483127 L 13.281995 12.467107 L 12.929045 12.262469 L 12.901139 12.245932 z M 13.774988 12.247999 L 13.747083 12.264019 L 13.393616 12.467107 L 13.365711 12.483127 L 13.365194 12.771998 A 7 7 0 0 0 13.778089 12.250066 L 13.774988 12.247999 z M 3.7244386 12.981805 L 3.3151613 13.216932 L 3.3146445 13.249489 L 3.3146445 13.29083 A 7 7 0 0 0 3.9456138 13.813795 L 4.1037437 13.722845 L 4.1316489 13.706825 L 4.1316489 13.674786 L 4.1321657 13.441208 L 4.1326825 13.251039 L 4.1326825 13.218999 L 3.7244386 12.981805 z M 4.5982871 12.983872 L 4.188493 13.218999 L 4.1879762 13.441208 L 4.1874595 13.706825 L 4.5962201 13.94402 L 5.0054974 13.708892 L 5.0060142 13.443275 L 5.0065309 13.221067 L 4.5982871 12.983872 z M 5.4721356 12.985939 L 5.0628582 13.221067 L 5.0623415 13.253623 L 5.0618247 13.443275 L 5.061308 13.676853 L 5.061308 13.708892 L 5.0892132 13.725428 L 5.4421633 13.92955 L 5.4700685 13.946087 L 5.4979738 13.930067 L 5.8514406 13.726979 L 5.8793459 13.710959 L 5.8793459 13.678403 L 5.8798626 13.445342 L 5.8803794 13.255173 L 5.8803794 13.223134 L 5.4721356 12.985939 z M 6.3459841 12.988006 L 5.9361899 13.223134 L 5.9356732 13.445342 L 5.9351564 13.710959 L 6.343917 13.948154 L 6.7531943 13.713026 L 6.7537111 13.446893 L 6.7542279 13.224684 L 6.3459841 12.988006 z M 7.2198325 12.990073 L 6.8100384 13.225201 L 6.8100384 13.25724 L 6.8095217 13.447409 L 6.8090049 13.68047 L 6.8090049 13.713026 L 6.8369102 13.729046 L 7.1893434 13.933685 L 7.2177655 13.950221 L 7.2456707 13.933685 L 7.6270428 13.714576 L 7.6270428 13.682537 L 7.6275596 13.44896 L 7.6280763 13.259307 L 7.6280763 13.226751 L 7.2198325 12.990073 z M 8.093681 12.99214 L 7.6838869 13.227268 L 7.6833701 13.449476 L 7.6828534 13.715093 L 8.0910972 13.951771 L 8.5008913 13.716644 L 8.501408 13.451027 L 8.5019248 13.228818 L 8.093681 12.99214 z M 8.9675295 12.99369 L 8.5577354 13.228818 L 8.5577354 13.261374 L 8.5572186 13.451027 L 8.5567018 13.684604 L 8.5567018 13.71716 L 8.5846071 13.73318 L 8.9370404 13.937819 L 8.9649456 13.953838 L 8.9933677 13.937819 L 9.3468345 13.73473 L 9.3747398 13.718711 L 9.3747398 13.686671 L 9.3752565 13.453094 L 9.3757733 13.263441 L 9.3757733 13.230885 L 8.9675295 12.99369 z M 9.8413779 12.995757 L 9.4315838 13.230885 L 9.4310671 13.453094 L 9.4305503 13.718711 L 9.8387941 13.955905 L 10.248588 13.720778 L 10.249105 13.455161 L 10.249622 13.232952 L 9.8413779 12.995757 z M 10.715226 12.997824 L 10.305432 13.232952 L 10.305432 13.265508 L 10.304916 13.455161 L 10.304399 13.688738 L 10.304399 13.720778 L 10.332304 13.737314 L 10.684737 13.941953 L 10.712643 13.957972 L 10.741065 13.941953 L 11.094531 13.738864 L 11.122437 13.722845 L 11.122437 13.690289 L 11.122953 13.457228 L 11.12347 13.267059 L 11.12347 13.235019 L 10.715226 12.997824 z M 11.589075 12.999891 L 11.179281 13.235019 L 11.178764 13.457228 L 11.178247 13.722845 L 11.586491 13.960039 L 11.996285 13.724912 L 11.996802 13.459295 L 11.997319 13.237086 L 11.589075 12.999891 z M 12.462923 13.001958 L 12.053129 13.237086 L 12.053129 13.269126 L 12.052612 13.459295 L 12.052096 13.692356 L 12.052096 13.724912 L 12.080001 13.740931 L 12.220561 13.82258 A 7 7 0 0 0 12.871167 13.283595 L 12.871167 13.271193 L 12.871167 13.238637 L 12.462923 13.001958 z M 3.2035402 13.184893 A 7 7 0 0 0 3.258834 13.23812 L 3.258834 13.216932 L 3.2035402 13.184893 z M 4.1595542 13.755401 L 3.9952232 13.849969 A 7 7 0 0 0 4.5672813 14.221522 L 4.567798 13.992596 L 4.5398927 13.976059 L 4.1874595 13.771421 L 4.1595542 13.755401 z M 5.0334027 13.757468 L 5.0054974 13.773488 L 4.6520306 13.976576 L 4.6241253 13.992596 L 4.6230918 14.253562 A 7 7 0 0 0 5.2556113 14.572922 L 5.4127077 14.482488 L 5.440613 14.466469 L 5.440613 14.434429 L 5.4416465 14.026702 L 5.4416465 13.994663 L 5.0334027 13.757468 z M 5.9072511 13.759535 L 5.497457 13.994663 L 5.4964235 14.466469 L 5.5243288 14.483005 L 5.8772788 14.687644 L 5.9051841 14.703663 L 5.9330894 14.687644 L 6.2865562 14.484555 L 6.3010256 14.476287 L 6.3144614 14.468536 L 6.315495 13.996213 L 6.2875897 13.980193 L 5.9351564 13.775555 L 5.9072511 13.759535 z M 6.7810996 13.761085 L 6.7531943 13.777622 L 6.3997275 13.980193 L 6.3713055 13.99673 L 6.370272 14.468536 L 6.3981773 14.485072 L 6.7511273 14.689711 L 6.7790326 14.70573 L 6.8069378 14.689711 L 7.1604046 14.486622 L 7.1883099 14.470603 L 7.1883099 14.438046 L 7.1893434 14.030836 L 7.1893434 13.99828 L 6.7810996 13.761085 z M 7.6549481 13.763152 L 7.245154 13.99828 L 7.2441205 14.470603 L 7.2720257 14.487139 L 7.6249758 14.691778 L 7.652881 14.707797 L 7.6807863 14.691778 L 8.0342531 14.488689 L 8.0621584 14.47267 L 8.0631919 14.000347 L 8.0352866 13.984327 L 7.6828534 13.779689 L 7.6549481 13.763152 z M 8.5287966 13.765219 L 8.5008913 13.781239 L 8.1474245 13.984327 L 8.1190024 14.000347 L 8.1179689 14.47267 L 8.1458742 14.488689 L 8.4988242 14.693328 L 8.5267295 14.709865 L 8.5546348 14.693845 L 8.9081016 14.490756 L 8.9360068 14.474737 L 8.9360068 14.442181 L 8.9370404 14.034454 L 8.9370404 14.002414 L 8.5287966 13.765219 z M 9.402645 13.767286 L 8.9928509 14.002414 L 8.9918174 14.474737 L 9.0197227 14.490756 L 9.3726727 14.695395 L 9.4000612 14.711932 L 9.400578 14.711932 L 9.4284832 14.695395 L 9.78195 14.492824 L 9.7902183 14.488173 L 9.7964194 14.484555 L 9.8098553 14.476287 L 9.8108888 14.004481 L 9.7829836 13.987945 L 9.4305503 13.783306 L 9.402645 13.767286 z M 10.276493 13.769353 L 10.248588 13.785373 L 9.8951214 13.988462 L 9.8666994 14.004481 L 9.8656659 14.476804 L 9.8935711 14.492824 L 10.246004 14.697462 L 10.274426 14.713482 L 10.302332 14.697462 L 10.655799 14.494374 L 10.683704 14.478354 L 10.683704 14.446315 L 10.684737 14.038588 L 10.684737 14.006548 L 10.276493 13.769353 z M 11.150342 13.771421 L 10.740548 14.006548 L 10.739514 14.478871 L 10.76742 14.494891 L 10.910563 14.57809 A 7 7 0 0 0 11.558069 14.251495 L 11.558586 14.008099 L 11.530681 13.992079 L 11.178247 13.78744 L 11.150342 13.771421 z M 12.02419 13.773488 L 11.995768 13.789507 L 11.642302 13.992596 L 11.614396 14.008615 L 11.61388 14.219455 A 7 7 0 0 0 12.170435 13.858237 L 12.02419 13.773488 z M 5.4685182 14.515044 L 5.3196901 14.600827 A 7 7 0 0 0 5.8767621 14.812701 L 5.8767621 14.784279 L 5.8767621 14.752239 L 5.4685182 14.515044 z M 6.3423667 14.517111 L 5.9330894 14.752239 L 5.9330894 14.831304 A 7 7 0 0 0 6.7500938 15.042661 L 6.7500938 14.976515 L 6.7506105 14.754306 L 6.3423667 14.517111 z M 7.2162152 14.519178 L 6.8069378 14.754306 L 6.8064211 14.786346 L 6.8064211 14.976515 L 6.8064211 15.052996 A 7 7 0 0 0 7.6234255 15.156349 L 7.6239422 14.978582 L 7.624459 14.788413 L 7.624459 14.756373 L 7.2162152 14.519178 z M 8.0900636 14.521246 L 7.6807863 14.756373 L 7.6802695 14.978582 L 7.6797528 15.159449 A 7 7 0 0 0 8.0890301 15.171852 A 7 7 0 0 0 8.4972739 15.159966 L 8.4977907 14.980132 L 8.4983075 14.757924 L 8.0900636 14.521246 z M 8.9639121 14.522796 L 8.5546348 14.75844 L 8.554118 14.79048 L 8.554118 14.980649 L 8.5536012 15.156349 A 7 7 0 0 0 9.3716392 15.052996 L 9.3716392 14.982199 L 9.3721559 14.792547 L 9.3721559 14.759991 L 8.9639121 14.522796 z M 9.8377606 14.524863 L 9.4279665 14.759991 L 9.4279665 14.982199 L 9.4279665 15.042661 A 7 7 0 0 0 10.246004 14.831304 L 10.246004 14.762058 L 9.8377606 14.524863 z M 10.711609 14.52693 L 10.302332 14.762058 L 10.301815 14.794614 L 10.301815 14.812701 A 7 7 0 0 0 10.847001 14.605478 L 10.711609 14.52693 z " /></g></svg>
