<svg width="30" height="380" viewBox="0 0 30 380" fill="none" xmlns="http://www.w3.org/2000/svg">
    <path d="M0.3 0.300003H29.7V379.7H0L0.3 0.300003Z" fill="#E6E6E6" />
    <path
        d="M7.47081 27.0629C7.02414 27.0629 6.60081 26.9962 6.20081 26.8629C5.80747 26.7296 5.44081 26.4996 5.10081 26.1729V25.1129C5.36747 25.3662 5.63747 25.5729 5.91081 25.7329C6.18414 25.8862 6.45747 25.9996 6.73081 26.0729C7.00414 26.1396 7.26747 26.1729 7.52081 26.1729C7.72747 26.1729 7.93747 26.1429 8.15081 26.0829C8.36414 26.0229 8.54414 25.9229 8.69081 25.7829C8.84414 25.6362 8.92081 25.4396 8.92081 25.1929C8.92081 24.9729 8.85414 24.7829 8.72081 24.6229C8.59414 24.4562 8.42081 24.3062 8.20081 24.1729C7.98747 24.0396 7.75081 23.9129 7.49081 23.7929C7.23081 23.6729 6.97081 23.5462 6.71081 23.4129C6.45081 23.2729 6.21081 23.1196 5.99081 22.9529C5.77747 22.7796 5.60414 22.5762 5.47081 22.3429C5.34414 22.1096 5.28081 21.8329 5.28081 21.5129C5.28081 21.1396 5.38747 20.8229 5.60081 20.5629C5.81414 20.3029 6.09081 20.1062 6.43081 19.9729C6.77747 19.8396 7.14747 19.7729 7.54081 19.7729C7.91414 19.7729 8.26081 19.8229 8.58081 19.9229C8.90081 20.0229 9.18747 20.1829 9.44081 20.4029V21.5529C9.25414 21.3262 9.05414 21.1496 8.84081 21.0229C8.62747 20.8896 8.41414 20.7962 8.20081 20.7429C7.98747 20.6829 7.77747 20.6529 7.57081 20.6529C7.19747 20.6529 6.89414 20.7262 6.66081 20.8729C6.43414 21.0196 6.32081 21.2296 6.32081 21.5029C6.32081 21.7029 6.38414 21.8796 6.51081 22.0329C6.64414 22.1796 6.81747 22.3129 7.03081 22.4329C7.25081 22.5529 7.49081 22.6729 7.75081 22.7929C8.01081 22.9129 8.27081 23.0429 8.53081 23.1829C8.79081 23.3162 9.02747 23.4729 9.24081 23.6529C9.46081 23.8262 9.63414 24.0362 9.76081 24.2829C9.89414 24.5296 9.96081 24.8196 9.96081 25.1529C9.96081 25.4929 9.89081 25.7862 9.75081 26.0329C9.61081 26.2729 9.42081 26.4696 9.18081 26.6229C8.94747 26.7762 8.68081 26.8862 8.38081 26.9529C8.08747 27.0262 7.78414 27.0629 7.47081 27.0629Z"
        fill="black" />
    <path d="M11.0172 26.9429V19.6229H12.0172V26.9429H11.0172Z" fill="black" />
    <path
        d="M13.3819 26.9429V22.0229H14.3719V26.9429H13.3819ZM13.8619 21.1429C13.6819 21.1429 13.5252 21.0829 13.3919 20.9629C13.2586 20.8362 13.1919 20.6796 13.1919 20.4929C13.1919 20.2996 13.2552 20.1396 13.3819 20.0129C13.5086 19.8862 13.6686 19.8229 13.8619 19.8229C14.0619 19.8229 14.2252 19.8829 14.3519 20.0029C14.4852 20.1229 14.5519 20.2862 14.5519 20.4929C14.5519 20.6796 14.4852 20.8362 14.3519 20.9629C14.2252 21.0829 14.0619 21.1429 13.8619 21.1429Z"
        fill="black" />
    <path
        d="M17.9145 27.0429C17.5611 27.0429 17.2311 26.9796 16.9245 26.8529C16.6245 26.7196 16.3611 26.5396 16.1345 26.3129C15.9078 26.0796 15.7311 25.8096 15.6045 25.5029C15.4778 25.1896 15.4145 24.8529 15.4145 24.4929C15.4145 24.0262 15.5211 23.5996 15.7345 23.2129C15.9478 22.8196 16.2478 22.5062 16.6345 22.2729C17.0211 22.0396 17.4678 21.9229 17.9745 21.9229C18.2078 21.9229 18.4411 21.9529 18.6745 22.0129C18.9145 22.0662 19.1211 22.1562 19.2945 22.2829V23.3629C19.1145 23.1696 18.9145 23.0229 18.6945 22.9229C18.4811 22.8162 18.2478 22.7629 17.9945 22.7629C17.6945 22.7629 17.4245 22.8362 17.1845 22.9829C16.9445 23.1296 16.7545 23.3296 16.6145 23.5829C16.4811 23.8296 16.4145 24.1162 16.4145 24.4429C16.4145 24.7562 16.4845 25.0462 16.6245 25.3129C16.7711 25.5796 16.9645 25.7929 17.2045 25.9529C17.4511 26.1129 17.7245 26.1929 18.0245 26.1929C18.2845 26.1929 18.5245 26.1396 18.7445 26.0329C18.9711 25.9262 19.1711 25.7796 19.3445 25.5929V26.6429C19.1511 26.7562 18.9345 26.8529 18.6945 26.9329C18.4611 27.0062 18.2011 27.0429 17.9145 27.0429Z"
        fill="black" />
    <path
        d="M22.6815 27.0629C22.1948 27.0629 21.7582 26.9529 21.3715 26.7329C20.9848 26.5129 20.6782 26.2096 20.4515 25.8229C20.2315 25.4362 20.1215 24.9962 20.1215 24.5029C20.1215 24.0096 20.2215 23.5696 20.4215 23.1829C20.6215 22.7896 20.9015 22.4796 21.2615 22.2529C21.6282 22.0196 22.0482 21.9029 22.5215 21.9029C22.8815 21.9029 23.2015 21.9662 23.4815 22.0929C23.7615 22.2196 24.0015 22.3962 24.2015 22.6229C24.4015 22.8429 24.5615 23.0996 24.6815 23.3929C24.8015 23.6862 24.8782 23.9962 24.9115 24.3229L21.1915 25.2329C21.3048 25.5329 21.4882 25.7796 21.7415 25.9729C21.9948 26.1596 22.3215 26.2529 22.7215 26.2529C22.9415 26.2529 23.1515 26.2262 23.3515 26.1729C23.5582 26.1129 23.7548 26.0296 23.9415 25.9229C24.1282 25.8096 24.2982 25.6762 24.4515 25.5229V26.5029C24.2315 26.6696 23.9682 26.8062 23.6615 26.9129C23.3548 27.0129 23.0282 27.0629 22.6815 27.0629ZM21.1215 24.4929L23.9015 23.7729C23.8215 23.4729 23.6615 23.2229 23.4215 23.0229C23.1815 22.8229 22.8815 22.7229 22.5215 22.7229C22.2082 22.7229 21.9448 22.8062 21.7315 22.9729C21.5182 23.1396 21.3582 23.3529 21.2515 23.6129C21.1448 23.8662 21.0915 24.1362 21.0915 24.4229L21.1215 24.4929Z"
        fill="black" />
    <path d="M11.6685 69.6672V64.0352H12.4925V69.6672H11.6685Z" fill="black" />
    <path
        d="M13.5397 69.6672V64.0672H14.3477L17.5317 68.3872V64.0352H18.3317V69.6672H17.5477L14.3477 65.3072V69.6672H13.5397Z"
        fill="black" />
    <path
        d="M5.4106 111.681C5.00527 111.681 4.6266 111.609 4.2746 111.465C3.9226 111.315 3.61593 111.11 3.3546 110.849C3.09326 110.582 2.88793 110.273 2.7386 109.921C2.5946 109.563 2.5226 109.177 2.5226 108.761C2.5226 108.35 2.5946 107.969 2.7386 107.617C2.8826 107.259 3.08526 106.947 3.3466 106.681C3.61326 106.409 3.9226 106.198 4.2746 106.049C4.63193 105.899 5.02127 105.825 5.4426 105.825C5.81593 105.825 6.14127 105.881 6.4186 105.993C6.69593 106.099 6.9466 106.238 7.1706 106.409V107.313C6.97327 107.094 6.73593 106.915 6.4586 106.777C6.1866 106.638 5.8426 106.569 5.4266 106.569C5.02127 106.569 4.66393 106.667 4.3546 106.865C4.04527 107.062 3.8026 107.326 3.6266 107.657C3.45593 107.987 3.3706 108.353 3.3706 108.753C3.3706 109.153 3.45593 109.518 3.6266 109.849C3.8026 110.179 4.04527 110.443 4.3546 110.641C4.66393 110.833 5.02127 110.929 5.4266 110.929C5.69327 110.929 5.9306 110.891 6.1386 110.817C6.35193 110.737 6.54926 110.633 6.7306 110.505C6.91726 110.371 7.0986 110.227 7.2746 110.073V110.977C7.0186 111.19 6.74127 111.361 6.4426 111.489C6.14927 111.617 5.80527 111.681 5.4106 111.681Z"
        fill="black" />
    <path d="M7.93235 111.569V105.937H8.76435V110.833H11.5163V111.569H7.93235Z" fill="black" />
    <path
        d="M14.3539 111.681C13.9272 111.681 13.5352 111.606 13.1779 111.457C12.8206 111.307 12.5086 111.099 12.2419 110.833C11.9806 110.566 11.7779 110.257 11.6339 109.905C11.4899 109.547 11.4179 109.166 11.4179 108.761C11.4179 108.355 11.4899 107.977 11.6339 107.625C11.7832 107.267 11.9886 106.955 12.2499 106.689C12.5166 106.417 12.8286 106.206 13.1859 106.057C13.5486 105.902 13.9432 105.825 14.3699 105.825C14.7966 105.825 15.1859 105.902 15.5379 106.057C15.8952 106.206 16.2046 106.417 16.4659 106.689C16.7326 106.955 16.9379 107.265 17.0819 107.617C17.2259 107.963 17.2979 108.337 17.2979 108.737C17.2979 109.147 17.2232 109.531 17.0739 109.889C16.9299 110.241 16.7246 110.553 16.4579 110.825C16.1912 111.091 15.8792 111.302 15.5219 111.457C15.1646 111.606 14.7752 111.681 14.3539 111.681ZM14.3619 110.937C14.7672 110.937 15.1272 110.841 15.4419 110.649C15.7566 110.451 16.0019 110.187 16.1779 109.857C16.3592 109.526 16.4499 109.163 16.4499 108.769C16.4499 108.47 16.3992 108.19 16.2979 107.929C16.2019 107.662 16.0606 107.427 15.8739 107.225C15.6872 107.022 15.4659 106.862 15.2099 106.745C14.9592 106.627 14.6766 106.569 14.3619 106.569C13.9512 106.569 13.5859 106.667 13.2659 106.865C12.9512 107.057 12.7032 107.318 12.5219 107.649C12.3459 107.974 12.2579 108.337 12.2579 108.737C12.2579 109.147 12.3459 109.521 12.5219 109.857C12.7032 110.187 12.9512 110.451 13.2659 110.649C13.5859 110.841 13.9512 110.937 14.3619 110.937Z"
        fill="black" />
    <path
        d="M20.5622 111.681C20.1568 111.681 19.7782 111.609 19.4262 111.465C19.0742 111.315 18.7675 111.11 18.5062 110.849C18.2448 110.582 18.0395 110.273 17.8902 109.921C17.7462 109.563 17.6742 109.177 17.6742 108.761C17.6742 108.35 17.7462 107.969 17.8902 107.617C18.0342 107.259 18.2368 106.947 18.4982 106.681C18.7648 106.409 19.0742 106.198 19.4262 106.049C19.7835 105.899 20.1728 105.825 20.5942 105.825C20.9675 105.825 21.2928 105.881 21.5702 105.993C21.8475 106.099 22.0982 106.238 22.3222 106.409V107.313C22.1248 107.094 21.8875 106.915 21.6102 106.777C21.3382 106.638 20.9942 106.569 20.5782 106.569C20.1728 106.569 19.8155 106.667 19.5062 106.865C19.1968 107.062 18.9542 107.326 18.7782 107.657C18.6075 107.987 18.5222 108.353 18.5222 108.753C18.5222 109.153 18.6075 109.518 18.7782 109.849C18.9542 110.179 19.1968 110.443 19.5062 110.641C19.8155 110.833 20.1728 110.929 20.5782 110.929C20.8448 110.929 21.0822 110.891 21.2902 110.817C21.5035 110.737 21.7008 110.633 21.8822 110.505C22.0688 110.371 22.2502 110.227 22.4262 110.073V110.977C22.1702 111.19 21.8928 111.361 21.5942 111.489C21.3008 111.617 20.9568 111.681 20.5622 111.681Z"
        fill="black" />
    <path
        d="M23.0839 111.569V105.937H23.9079V108.289L26.0039 105.937H27.0359L24.6599 108.537L27.2359 111.569H26.2039L23.9079 108.881V111.569H23.0839Z"
        fill="black" />
    <path d="M8.27046 198.328V193.424H6.59046V192.696H10.7665V193.424H9.08646V198.328H8.27046Z"
        fill="black" />
    <path
        d="M11.2068 198.328V192.696H13.1108C13.5161 192.696 13.8681 192.765 14.1668 192.904C14.4708 193.042 14.7054 193.237 14.8708 193.488C15.0414 193.738 15.1268 194.029 15.1268 194.36C15.1268 194.792 14.9908 195.146 14.7188 195.424C14.4521 195.701 14.0921 195.885 13.6388 195.976L15.3908 198.328H14.4068L12.7588 196.048H12.0468V198.328H11.2068ZM12.0468 195.392H12.9188C13.1854 195.392 13.4201 195.36 13.6228 195.296C13.8308 195.226 13.9934 195.117 14.1108 194.968C14.2334 194.818 14.2948 194.626 14.2948 194.392C14.2948 194.056 14.1828 193.81 13.9588 193.656C13.7401 193.501 13.4308 193.424 13.0308 193.424H12.0468V195.392Z"
        fill="black" />
    <path d="M15.7949 198.328V192.696H16.6189V198.328H15.7949Z" fill="black" />
    <path
        d="M20.3062 198.456C19.8848 198.456 19.4928 198.381 19.1301 198.232C18.7728 198.077 18.4635 197.866 18.2022 197.6C17.9408 197.328 17.7355 197.016 17.5862 196.664C17.4422 196.306 17.3702 195.922 17.3702 195.512C17.3702 195.101 17.4475 194.72 17.6022 194.368C17.7622 194.016 17.9808 193.706 18.2582 193.44C18.5355 193.168 18.8582 192.957 19.2262 192.808C19.5995 192.658 19.9968 192.584 20.4181 192.584C20.7275 192.584 21.0342 192.624 21.3382 192.704C21.6422 192.784 21.9302 192.917 22.2022 193.104V194.008C21.9995 193.805 21.7515 193.64 21.4582 193.512C21.1702 193.384 20.8421 193.32 20.4741 193.32C20.1648 193.32 19.8715 193.378 19.5942 193.496C19.3222 193.608 19.0822 193.768 18.8742 193.976C18.6662 194.178 18.5008 194.41 18.3782 194.672C18.2608 194.933 18.2022 195.213 18.2022 195.512C18.2022 195.928 18.2955 196.304 18.4822 196.64C18.6742 196.97 18.9328 197.232 19.2582 197.424C19.5835 197.616 19.9488 197.712 20.3542 197.712C20.7275 197.712 21.0662 197.634 21.3702 197.48C21.6742 197.325 21.9142 197.109 22.0902 196.832C22.2715 196.549 22.3622 196.216 22.3622 195.832H20.7702V195.12H23.1382V195.352C23.1382 195.8 23.0768 196.213 22.9542 196.592C22.8368 196.97 22.6582 197.301 22.4181 197.584C22.1782 197.861 21.8822 198.077 21.5302 198.232C21.1782 198.381 20.7702 198.456 20.3062 198.456Z"
        fill="black" />
    <path
        d="M9.20506 321.854C8.84772 321.854 8.50906 321.8 8.18906 321.694C7.87439 321.587 7.58106 321.403 7.30906 321.142V320.294C7.52239 320.496 7.73839 320.662 7.95706 320.79C8.17572 320.912 8.39439 321.003 8.61306 321.062C8.83172 321.115 9.04239 321.142 9.24506 321.142C9.41039 321.142 9.57839 321.118 9.74906 321.07C9.91972 321.022 10.0637 320.942 10.1811 320.83C10.3037 320.712 10.3651 320.555 10.3651 320.358C10.3651 320.182 10.3117 320.03 10.2051 319.902C10.1037 319.768 9.96506 319.648 9.78906 319.542C9.61839 319.435 9.42906 319.334 9.22106 319.238C9.01306 319.142 8.80506 319.04 8.59706 318.934C8.38906 318.822 8.19706 318.699 8.02106 318.566C7.85039 318.427 7.71172 318.264 7.60506 318.078C7.50372 317.891 7.45306 317.67 7.45306 317.414C7.45306 317.115 7.53839 316.862 7.70906 316.654C7.87972 316.446 8.10106 316.288 8.37306 316.182C8.65039 316.075 8.94639 316.022 9.26106 316.022C9.55972 316.022 9.83706 316.062 10.0931 316.142C10.3491 316.222 10.5784 316.35 10.7811 316.526V317.446C10.6317 317.264 10.4717 317.123 10.3011 317.022C10.1304 316.915 9.95972 316.84 9.78906 316.798C9.61839 316.75 9.45039 316.726 9.28506 316.726C8.98639 316.726 8.74372 316.784 8.55706 316.902C8.37572 317.019 8.28506 317.187 8.28506 317.406C8.28506 317.566 8.33572 317.707 8.43706 317.83C8.54372 317.947 8.68239 318.054 8.85306 318.15C9.02906 318.246 9.22106 318.342 9.42906 318.438C9.63706 318.534 9.84506 318.638 10.0531 318.75C10.2611 318.856 10.4504 318.982 10.6211 319.126C10.7971 319.264 10.9357 319.432 11.0371 319.63C11.1437 319.827 11.1971 320.059 11.1971 320.326C11.1971 320.598 11.1411 320.832 11.0291 321.03C10.9171 321.222 10.7651 321.379 10.5731 321.502C10.3864 321.624 10.1731 321.712 9.93306 321.766C9.69839 321.824 9.45572 321.854 9.20506 321.854Z"
        fill="black" />
    <path d="M11.8982 321.758V316.126H12.7222V321.758H11.8982Z" fill="black" />
    <path
        d="M13.1694 321.758V321.086L16.9694 316.846H13.3694V316.126H18.0174V316.798L14.2574 321.038H17.8734V321.758H13.1694Z"
        fill="black" />
    <path
        d="M18.5588 321.758V316.126H22.3828V316.854H19.3908V318.542H22.1428V319.246H19.3908V321.03H22.4628V321.758H18.5588Z"
        fill="black" />
    <path
        d="M9.91032 363.041C9.48365 363.041 9.09165 362.966 8.73432 362.817C8.37698 362.667 8.06498 362.459 7.79832 362.193C7.53698 361.926 7.33432 361.617 7.19032 361.265C7.04632 360.907 6.97432 360.526 6.97432 360.121C6.97432 359.715 7.04632 359.337 7.19032 358.985C7.33965 358.627 7.54498 358.315 7.80632 358.049C8.07298 357.777 8.38498 357.566 8.74232 357.417C9.10498 357.262 9.49965 357.185 9.92632 357.185C10.353 357.185 10.7423 357.262 11.0943 357.417C11.4516 357.566 11.761 357.777 12.0223 358.049C12.289 358.315 12.4943 358.625 12.6383 358.977C12.7823 359.323 12.8543 359.697 12.8543 360.097C12.8543 360.507 12.7797 360.891 12.6303 361.249C12.4863 361.601 12.281 361.913 12.0143 362.185C11.7476 362.451 11.4356 362.662 11.0783 362.817C10.721 362.966 10.3316 363.041 9.91032 363.041ZM9.91832 362.297C10.3237 362.297 10.6837 362.201 10.9983 362.009C11.313 361.811 11.5583 361.547 11.7343 361.217C11.9157 360.886 12.0063 360.523 12.0063 360.129C12.0063 359.83 11.9557 359.55 11.8543 359.289C11.7583 359.022 11.617 358.787 11.4303 358.585C11.2437 358.382 11.0223 358.222 10.7663 358.105C10.5156 357.987 10.233 357.929 9.91832 357.929C9.50765 357.929 9.14232 358.027 8.82232 358.225C8.50765 358.417 8.25965 358.678 8.07832 359.009C7.90232 359.334 7.81432 359.697 7.81432 360.097C7.81432 360.507 7.90232 360.881 8.07832 361.217C8.25965 361.547 8.50765 361.811 8.82232 362.009C9.14232 362.201 9.50765 362.297 9.91832 362.297Z"
        fill="black" />
    <path
        d="M15.8466 363.049C15.3559 363.049 14.9372 362.953 14.5906 362.761C14.2492 362.569 13.9879 362.291 13.8066 361.929C13.6306 361.566 13.5426 361.131 13.5426 360.625V357.289H14.3666V360.593C14.3666 361.126 14.4866 361.542 14.7266 361.841C14.9719 362.139 15.3452 362.289 15.8466 362.289C16.3159 362.289 16.6786 362.153 16.9346 361.881C17.1906 361.603 17.3186 361.182 17.3186 360.617V357.289H18.1346V360.601C18.1346 361.113 18.0466 361.553 17.8706 361.921C17.6999 362.283 17.4439 362.563 17.1026 362.761C16.7666 362.953 16.3479 363.049 15.8466 363.049Z"
        fill="black" />
    <path d="M20.1981 362.929V358.025H18.5181V357.297H22.6941V358.025H21.0141V362.929H20.1981Z"
        fill="black" />
    <path
        d="M14.9471 231.281C14.4564 231.281 14.0431 231.164 13.7071 230.929C13.3711 230.689 13.1177 230.377 12.9471 229.993L13.5871 229.513C13.7257 229.849 13.9017 230.108 14.1151 230.289C14.3284 230.465 14.6031 230.553 14.9391 230.553C15.2697 230.553 15.5444 230.452 15.7631 230.249C15.9871 230.041 16.0991 229.758 16.0991 229.401C16.0991 229.129 16.0404 228.91 15.9231 228.745C15.8057 228.58 15.6457 228.46 15.4431 228.385C15.2457 228.305 15.0164 228.265 14.7551 228.265C14.7017 228.265 14.6404 228.268 14.5711 228.273C14.5017 228.273 14.4324 228.276 14.3631 228.281C14.2937 228.286 14.2297 228.297 14.1711 228.313L14.0591 227.881L15.6831 226.169H13.2911V225.457H16.7071V226.137L15.1871 227.673C15.5177 227.684 15.8137 227.758 16.0751 227.897C16.3364 228.036 16.5417 228.23 16.6911 228.481C16.8457 228.726 16.9231 229.028 16.9231 229.385C16.9231 229.737 16.8377 230.057 16.6671 230.345C16.4964 230.628 16.2617 230.854 15.9631 231.025C15.6697 231.196 15.3311 231.281 14.9471 231.281Z"
        fill="black" />
    <path
        d="M19.5124 234.602V238.636C19.2981 238.576 19.0647 238.543 18.8205 238.543C17.7755 238.543 16.9284 239.148 16.9284 239.895C16.9284 240.641 17.7755 241.246 18.8205 241.246C19.8654 241.246 20.7125 240.641 20.7125 239.895V234.102C20.7123 233.715 20.3988 233.402 20.0124 233.402H11.153C10.7667 233.403 10.454 233.715 10.4538 234.102V238.628C10.2475 238.573 10.0242 238.543 9.791 238.543C8.74604 238.543 7.89893 239.148 7.89893 239.895C7.89893 240.641 8.74604 241.246 9.791 241.246C10.836 241.246 11.6831 240.641 11.6831 239.895C11.6831 239.812 11.6728 239.731 11.653 239.653V234.602H14.7096V238.636C14.4953 238.576 14.2619 238.543 14.0177 238.543C12.9728 238.543 12.1257 239.148 12.1257 239.895C12.1257 240.641 12.9728 241.246 14.0177 241.246C15.0627 241.246 15.9098 240.641 15.9098 239.895V234.602H19.5124Z"
        fill="black" />
    <path d="M13.3494 255.182L15.8494 255.174L15.9993 298.847L13.4994 298.856L13.3494 255.182Z"
        fill="black" />
    <path d="M15.999 177.416L13.499 177.425L13.4326 157.947H15.9326L15.999 177.416Z" fill="black" />
    <path d="M15.9043 149.689H13.4043L13.3496 133.751L15.8496 133.742L15.9043 149.689Z" fill="black" />
    <g data-name="components">
        <circle cx="14.6743" cy="342.577" r="2" fill="#0000FF" />
        <circle cx="14.6743" cy="46.0526" r="2" fill="#00FF00" />
        <circle cx="14.6743" cy="90.2675" r="2" fill="#00FF00" />
        <circle cx="14.6743" cy="128.507" r="2" fill="#00FF00" />
        <circle cx="14.6743" cy="298.847" r="2" fill="#00FF00" />
        <circle cx="14.6743" cy="154.066" r="2" fill="#FF00FF" />
        <circle cx="14.6743" cy="177.557" r="2" fill="#FF0000" />
        <circle cx="14.6743" cy="212.928" r="2" fill="#FF0000" />
        <circle cx="14.6744" cy="256.991" r="2" fill="#FF0000" />
    </g>
</svg>