<?xml version="1.0" encoding="UTF-8" standalone="no"?>
<!-- Created with Inkscape (http://www.inkscape.org/) -->

<svg
   width="5.4000001mm"
   height="5.4000001mm"
   viewBox="0 0 5.4000002 5.4000001"
   version="1.1"
   id="svg1"
   sodipodi:docname="SmallButton.svg"
   inkscape:version="1.4.3 (0d15f75, 2025-12-25)"
   xml:space="preserve"
   xmlns:inkscape="http://www.inkscape.org/namespaces/inkscape"
   xmlns:sodipodi="http://sodipodi.sourceforge.net/DTD/sodipodi-0.dtd"
   xmlns="http://www.w3.org/2000/svg"
   xmlns:svg="http://www.w3.org/2000/svg"><sodipodi:namedview
     id="namedview1"
     pagecolor="#ffffff"
     bordercolor="#000000"
     borderopacity="0.25"
     inkscape:showpageshadow="2"
     inkscape:pageopacity="0.0"
     inkscape:pagecheckerboard="0"
     inkscape:deskcolor="#d1d1d1"
     inkscape:document-units="mm"
     inkscape:zoom="18.153034"
     inkscape:cx="11.953924"
     inkscape:cy="15.424419"
     inkscape:window-width="1680"
     inkscape:window-height="909"
     inkscape:window-x="0"
     inkscape:window-y="31"
     inkscape:window-maximized="0"
     inkscape:current-layer="layer1" /><defs
     id="defs1"><inkscape:path-effect
       effect="tiling"
       id="path-effect1289"
       is_visible="true"
       lpeversion="1.3.1"
       unit="px"
       seed="1;1"
       lpesatellites=""
       num_rows="3"
       num_cols="5"
       gapx="0"
       gapy="-126"
       offset="0"
       offset_type="false"
       scale="0"
       rotate="0"
       mirrorrowsx="false"
       mirrorrowsy="false"
       mirrorcolsx="false"
       mirrorcolsy="false"
       mirrortrans="false"
       shrink_interp="false"
       split_items="false"
       link_styles="false"
       interpolate_scalex="false"
       interpolate_scaley="true"
       interpolate_rotatex="false"
       interpolate_rotatey="true"
       random_scale="false"
       random_rotate="false"
       random_gap_y="false"
       random_gap_x="false"
       transformorigin="" /><inkscape:path-effect
       effect="tiling"
       id="path-effect226"
       is_visible="true"
       lpeversion="1.3.1"
       unit="px"
       seed="1;1"
       lpesatellites=""
       num_rows="3"
       num_cols="3"
       gapx="-58"
       gapy="-67"
       offset="0"
       offset_type="false"
       scale="0"
       rotate="0"
       mirrorrowsx="false"
       mirrorrowsy="false"
       mirrorcolsx="false"
       mirrorcolsy="false"
       mirrortrans="false"
       shrink_interp="false"
       split_items="false"
       link_styles="false"
       interpolate_scalex="false"
       interpolate_scaley="true"
       interpolate_rotatex="false"
       interpolate_rotatey="true"
       random_scale="false"
       random_rotate="false"
       random_gap_y="false"
       random_gap_x="false"
       transformorigin="" /><inkscape:path-effect
       effect="tiling"
       id="path-effect225"
       is_visible="true"
       lpeversion="1.3.1"
       unit="px"
       seed="1;1"
       lpesatellites=""
       num_rows="3"
       num_cols="3"
       gapx="0"
       gapy="0"
       offset="0"
       offset_type="false"
       scale="0"
       rotate="0"
       mirrorrowsx="false"
       mirrorrowsy="false"
       mirrorcolsx="false"
       mirrorcolsy="false"
       mirrortrans="false"
       shrink_interp="false"
       split_items="false"
       link_styles="false"
       interpolate_scalex="false"
       interpolate_scaley="true"
       interpolate_rotatex="false"
       interpolate_rotatey="true"
       random_scale="false"
       random_rotate="false"
       random_gap_y="false"
       random_gap_x="false"
       transformorigin="matrix(0.26458333,0,0,0.26458333,46.831383,66.908524)" /><clipPath
       clipPathUnits="userSpaceOnUse"
       id="clipPath43"><rect
         style="fill:#000000;stroke:none;stroke-width:0.999995;stroke-linecap:butt;stroke-linejoin:bevel;paint-order:stroke markers fill;stop-color:#000000"
         id="rect43"
         width="46.19186"
         height="80.006783"
         x="74.999985"
         y="399.99661" /></clipPath><clipPath
       clipPathUnits="userSpaceOnUse"
       id="clipPath33"><rect
         style="fill:#000000;stroke:none;stroke-width:0.999995;stroke-linecap:butt;stroke-linejoin:bevel;paint-order:stroke markers fill;stop-color:#000000"
         id="rect33"
         width="46.19186"
         height="80.006783"
         x="74.999985"
         y="399.99661" /></clipPath><clipPath
       clipPathUnits="userSpaceOnUse"
       id="clipPath5"><rect
         style="fill:#000000;stroke:#000000;stroke-width:0;stroke-linejoin:bevel;paint-order:stroke markers fill;stop-color:#000000"
         id="rect5-4"
         width="20"
         height="200"
         x="530"
         y="595" /></clipPath><filter
       inkscape:label="Blur"
       inkscape:menu="Scatter"
       inkscape:menu-tooltip="Convert to small scattered particles with some thickness"
       height="3.0446758"
       y="-1.022338"
       width="26.06498"
       x="-12.53249"
       style="color-interpolation-filters:sRGB"
       id="filter232"><feTurbulence
         baseFrequency="0.05"
         numOctaves="5"
         type="fractalNoise"
         result="result91"
         id="feTurbulence232" /><feDisplacementMap
         scale="25"
         result="result5"
         xChannelSelector="R"
         in="SourceGraphic"
         in2="result91"
         id="feDisplacementMap232"
         yChannelSelector="A" /><feComposite
         in="SourceGraphic"
         operator="atop"
         in2="result5"
         id="feComposite232"
         result="fbSourceGraphic" /><feColorMatrix
         result="fbSourceGraphicAlpha"
         in="fbSourceGraphic"
         values="0 0 0 -1 0 0 0 0 -1 0 0 0 0 -1 0 0 0 0 1 0"
         id="feColorMatrix404" /><feGaussianBlur
         id="feGaussianBlur404"
         result="result8"
         stdDeviation="7"
         in="fbSourceGraphic" /><feTurbulence
         id="feTurbulence404"
         baseFrequency="0.04"
         numOctaves="1"
         type="turbulence"
         result="result7"
         seed="0" /><feComposite
         id="feComposite404"
         in2="result7"
         in="result8"
         operator="xor"
         result="result6" /><feDisplacementMap
         id="feDisplacementMap404"
         in2="result6"
         result="result4"
         scale="100"
         yChannelSelector="A"
         xChannelSelector="A"
         in="fbSourceGraphic" /><feComposite
         id="feComposite405"
         in2="fbSourceGraphic"
         in="result4"
         operator="arithmetic"
         result="result2"
         k1="1"
         k2="0"
         k3="0"
         k4="0" /><feComposite
         id="feComposite406"
         in2="result2"
         operator="out"
         in="fbSourceGraphic"
         result="fbSourceGraphic" /><feComposite
         id="feComposite407"
         in2="fbSourceGraphic"
         operator="in"
         result="fbSourceGraphic"
         in="fbSourceGraphic" /><feColorMatrix
         result="fbSourceGraphicAlpha"
         in="fbSourceGraphic"
         values="0 0 0 -1 0 0 0 0 -1 0 0 0 0 -1 0 0 0 0 1 0"
         id="feColorMatrix407" /><feGaussianBlur
         id="feGaussianBlur407"
         result="result8"
         stdDeviation="7"
         in="fbSourceGraphic" /><feTurbulence
         id="feTurbulence407"
         baseFrequency="0.04"
         numOctaves="1"
         type="turbulence"
         result="result7"
         seed="0" /><feComposite
         id="feComposite408"
         in2="result7"
         in="result8"
         operator="xor"
         result="result6" /><feDisplacementMap
         id="feDisplacementMap408"
         in2="result6"
         result="result4"
         scale="100"
         yChannelSelector="A"
         xChannelSelector="A"
         in="fbSourceGraphic" /><feComposite
         id="feComposite409"
         in2="fbSourceGraphic"
         in="result4"
         operator="arithmetic"
         result="result2"
         k1="1"
         k2="0"
         k3="0"
         k4="0" /><feComposite
         id="feComposite410"
         in2="result2"
         operator="out"
         in="fbSourceGraphic"
         result="fbSourceGraphic" /><feComposite
         id="feComposite411"
         in2="fbSourceGraphic"
         operator="in"
         result="fbSourceGraphic"
         in="fbSourceGraphic" /><feColorMatrix
         result="fbSourceGraphicAlpha"
         in="fbSourceGraphic"
         values="0 0 0 -1 0 0 0 0 -1 0 0 0 0 -1 0 0 0 0 1 0"
         id="feColorMatrix471" /><feTurbulence
         id="feTurbulence471"
         baseFrequency="0.09"
         numOctaves="5"
         type="fractalNoise"
         result="result6" /><feColorMatrix
         id="feColorMatrix472"
         values="1 0 0 0 0 0 1 0 0 0 0 0 1 0 0 0 0 0 4.9 -2.9 "
         result="result5"
         in="result6" /><feComposite
         id="feComposite472"
         in2="result5"
         operator="in"
         in="fbSourceGraphic" /><feMorphology
         id="feMorphology472"
         result="result3"
         radius="6"
         operator="dilate" /><feTurbulence
         id="feTurbulence472"
         baseFrequency="0.2"
         numOctaves="1"
         type="fractalNoise"
         result="result91" /><feDisplacementMap
         id="feDisplacementMap472"
         result="result4"
         scale="15"
         yChannelSelector="G"
         xChannelSelector="R"
         in="result3"
         in2="result91" /><feComposite
         id="feComposite473"
         in2="result4"
         operator="arithmetic"
         result="result2"
         k1="0.5"
         k3="1"
         k2="0"
         k4="0" /><feConvolveMatrix
         id="feConvolveMatrix473"
         order="3 3"
         kernelMatrix="1 0 0 0 2 0 0 0 -1 "
         targetX="0"
         targetY="0"
         divisor="1.5"
         edgeMode="duplicate"
         in="result2"
         result="fbSourceGraphic" /><feColorMatrix
         result="fbSourceGraphicAlpha"
         in="fbSourceGraphic"
         values="0 0 0 -1 0 0 0 0 -1 0 0 0 0 -1 0 0 0 0 1 0"
         id="feColorMatrix473" /><feTurbulence
         id="feTurbulence473"
         baseFrequency="0.14"
         numOctaves="1"
         type="fractalNoise" /><feColorMatrix
         id="feColorMatrix474"
         values="1 0 0 0 0 0 1 0 0 0 0 0 1 0 0 0 0 0 6 -3.5 "
         result="result5" /><feComposite
         id="feComposite474"
         in2="result5"
         operator="in"
         in="fbSourceGraphic"
         result="result6" /><feMorphology
         id="feMorphology474"
         result="result3"
         radius="5"
         operator="dilate"
         in="result6" /><feDisplacementMap
         id="feDisplacementMap474"
         result="result4"
         scale="0"
         yChannelSelector="A"
         xChannelSelector="R"
         in="result3"
         in2="result3" /><feComposite
         id="feComposite475"
         in2="result4"
         operator="arithmetic"
         result="result2"
         k1="1"
         k3="1"
         k2="0"
         k4="0" /><feBlend
         id="feBlend475"
         mode="darken"
         in="result2"
         in2="result2" /><feConvolveMatrix
         id="feConvolveMatrix475"
         order="3 3"
         kernelMatrix="2 0 0 0 1 0 0 0 -1 "
         targetX="1"
         targetY="1"
         divisor="2"
         edgeMode="duplicate"
         result="fbSourceGraphic" /><feColorMatrix
         result="fbSourceGraphicAlpha"
         in="fbSourceGraphic"
         values="0 0 0 -1 0 0 0 0 -1 0 0 0 0 -1 0 0 0 0 1 0"
         id="feColorMatrix475" /><feGaussianBlur
         id="feGaussianBlur475"
         stdDeviation="0.01"
         result="result1"
         in="fbSourceGraphic" /><feBlend
         id="feBlend476"
         in2="result1"
         result="fbSourceGraphic"
         mode="multiply" /><feTurbulence
         id="feTurbulence476"
         baseFrequency="0.8"
         type="fractalNoise"
         seed="0"
         numOctaves="3"
         result="result3" /><feDisplacementMap
         id="feDisplacementMap476"
         in="fbSourceGraphic"
         xChannelSelector="R"
         yChannelSelector="G"
         scale="50"
         result="result2"
         in2="result3" /><feMorphology
         id="feMorphology476"
         radius="1"
         operator="dilate"
         result="result4" /><feBlend
         id="feBlend477"
         mode="screen"
         in2="result2"
         result="fbSourceGraphic" /><feColorMatrix
         result="fbSourceGraphicAlpha"
         in="fbSourceGraphic"
         values="0 0 0 -1 0 0 0 0 -1 0 0 0 0 -1 0 0 0 0 1 0"
         id="feColorMatrix478" /><feGaussianBlur
         id="feGaussianBlur478"
         stdDeviation="24.7694 15.8814"
         result="fbSourceGraphic"
         in="fbSourceGraphic" /><feColorMatrix
         result="fbSourceGraphicAlpha"
         in="fbSourceGraphic"
         values="0 0 0 -1 0 0 0 0 -1 0 0 0 0 -1 0 0 0 0 1 0"
         id="feColorMatrix479" /><feGaussianBlur
         id="feGaussianBlur479"
         stdDeviation="24.77 15.8814"
         result="blur"
         in="fbSourceGraphic" /></filter><filter
       inkscape:label="Ripple"
       inkscape:menu="Distort"
       inkscape:menu-tooltip="Horizontal rippling of edges"
       style="color-interpolation-filters:sRGB"
       id="filter533"
       x="0"
       y="0"
       width="1"
       height="1"><feTurbulence
         numOctaves="1"
         baseFrequency="0.002 0.107"
         id="feTurbulence533" /><feColorMatrix
         values="2 0 0 0 0 0 0 0 0 0 0 0 0 0 0 0 0 0 0.5 0.5"
         result="result91"
         id="feColorMatrix533" /><feDisplacementMap
         yChannelSelector="A"
         xChannelSelector="R"
         scale="14.3"
         in="SourceGraphic"
         in2="result91"
         id="feDisplacementMap533" /></filter><filter
       inkscape:label="Torn Edges"
       inkscape:menu="Distort"
       inkscape:menu-tooltip="Displace the outside of shapes and pictures without altering their content"
       height="1"
       y="0"
       width="1"
       x="0"
       style="color-interpolation-filters:sRGB"
       id="filter13"><feTurbulence
         baseFrequency="0.05"
         numOctaves="5"
         type="fractalNoise"
         result="result91"
         id="feTurbulence13" /><feDisplacementMap
         scale="25"
         result="result5"
         xChannelSelector="R"
         in="SourceGraphic"
         in2="result91"
         id="feDisplacementMap13"
         yChannelSelector="A" /><feComposite
         in="SourceGraphic"
         operator="atop"
         in2="result5"
         id="feComposite13" /></filter><filter
       inkscape:label="Ripple"
       inkscape:menu="Distort"
       inkscape:menu-tooltip="Horizontal rippling of edges"
       style="color-interpolation-filters:sRGB"
       id="filter2"
       x="0"
       y="0"
       width="1"
       height="1"><feTurbulence
         numOctaves="1"
         baseFrequency="0.002 0.107"
         id="feTurbulence2" /><feColorMatrix
         values="2 0 0 0 0 0 0 0 0 0 0 0 0 0 0 0 0 0 0.5 0.5"
         result="result91"
         id="feColorMatrix2" /><feDisplacementMap
         yChannelSelector="A"
         xChannelSelector="R"
         scale="14.3"
         in="SourceGraphic"
         in2="result91"
         id="feDisplacementMap2" /></filter><filter
       style="color-interpolation-filters:sRGB"
       inkscape:label="Drop Shadow"
       id="filter99"
       x="0"
       y="0"
       width="1.0349084"
       height="1.0833634"><feFlood
         result="flood"
         in="SourceGraphic"
         flood-opacity="0.549020"
         flood-color="rgb(0,0,0)"
         id="feFlood98" /><feGaussianBlur
         result="blur"
         in="SourceGraphic"
         stdDeviation="0.000000"
         id="feGaussianBlur98" /><feOffset
         result="offset"
         in="blur"
         dx="0.600000"
         dy="0.500000"
         id="feOffset98" /><feComposite
         result="comp1"
         operator="in"
         in="flood"
         in2="offset"
         id="feComposite98" /><feComposite
         result="comp2"
         operator="over"
         in="SourceGraphic"
         in2="comp1"
         id="feComposite99" /></filter></defs><g
     inkscape:label="bg"
     inkscape:groupmode="layer"
     id="layer1"><path
       id="path1"
       style="baseline-shift:baseline;display:inline;overflow:visible;opacity:1;vector-effect:none;fill:#ecc94b;stroke-width:0.0577225;stroke-linecap:square;enable-background:accumulate;stop-color:#000000;stop-opacity:1"
       d="M 2.5854247,6.4067846e-8 A 2.7013464,2.7013464 0 0 0 2.3873565,0.01580338 l 0.082702,0.04793684 V 0.33134299 L 2.0359962,0.08059699 H 2.0354695 A 2.7013464,2.7013464 0 0 0 1.8816503,0.12484654 L 2.4700605,0.46461775 V 0.73063998 L 2.2993847,0.63160601 1.9527655,0.4314306 1.604039,0.23020172 a 2.7013464,2.7013464 0 0 0 -0.1264265,0.0605798 l 0.018436,0.0105355 0.00105,0.39192232 0.3397729,-0.1949081 0.231782,0.13327493 L 1.2642659,1.0962233 1.2647928,0.41141314 A 2.7013464,2.7013464 0 0 0 1.1494302,0.48832258 L 1.1489036,1.2958718 2.1840205,0.69850657 2.4158026,0.83230796 2.2435463,0.93186873 v -0.002115 L 1.4396846,1.3938523 1.0930653,1.5940277 0.91870197,1.694642 0.91764842,0.67058736 A 2.7013464,2.7013464 0 0 0 0.79332912,0.78700513 L 0.79438167,1.6914815 0.56207138,1.5571532 V 1.04934 A 2.7013464,2.7013464 0 0 0 0.44670651,1.2110607 V 1.4902525 L 0.32291408,1.418611 A 2.7013464,2.7013464 0 0 0 0.26812877,1.5260734 L 0.73169285,1.7942027 0.04846301,2.1898121 A 2.7013464,2.7013464 0 0 0 0.02370407,2.3446852 L 0.79596277,1.8979778 V 2.1661074 L 0.0010562,2.6249306 A 2.7013464,2.7013464 0 0 0 0,2.698681 2.7013464,2.7013464 0 0 0 0.0010562,2.7582046 L 0.79596277,2.2993822 V 2.566458 l -0.33924428,0.1970149 0.33924428,0.196488 v 0.267603 L 0.0010562,2.7687404 A 2.7013464,2.7013464 0 0 0 0.00790506,2.9062296 L 0.79596277,3.3608381 V 3.6289674 L 0.04583222,3.1949032 A 2.7013464,2.7013464 0 0 0 0.10009037,3.4261587 L 0.15540103,3.3945523 0.38718298,3.5283535 0.1738382,3.6516191 A 2.7013464,2.7013464 0 0 0 0.2170345,3.7596086 L 0.50518127,3.5936736 0.73643663,3.7274748 0.56207352,3.8280898 V 3.825978 L 0.3165957,3.9682116 a 2.7013464,2.7013464 0 0 0 0.0574176,0.1016682 l 0.072695,-0.042143 v 0.1585609 a 2.7013464,2.7013464 0 0 0 0.1153662,0.162247 V 3.9613643 l 0.23230827,-0.1338017 -0.001053,0.7833179 a 2.7013464,2.7013464 0 0 0 0.1237933,0.1158909 v -0.099034 l 0.10904253,0.063214 -0.0906064,0.052152 a 2.7013464,2.7013464 0 0 0 0.0953476,0.078493 L 1.2558396,4.6909503 0.91712169,4.4944622 V 4.2268599 L 1.7209837,4.6909503 1.2384558,4.9696155 a 2.7013464,2.7013464 0 0 0 0.1122033,0.068481 H 1.351186 L 1.9522389,4.6909503 0.91712169,4.0935851 V 3.8275626 L 1.0877973,3.9260701 1.4344167,4.1262454 1.6546099,4.2537255 1.8911325,4.3901612 2.2377517,4.5903365 2.4126419,4.6909506 1.5961372,5.1634701 A 2.7013464,2.7013464 0 0 0 1.7299385,5.219308 L 2.4700605,4.7910381 V 5.0586406 L 2.027041,5.3146547 a 2.7013464,2.7013464 0 0 0 0.1659349,0.037401 L 2.4700605,5.1919152 v 0.1985951 a 2.7013464,2.7013464 0 0 0 0.1153642,0.00739 V 5.3926245 4.9922737 4.7910448 l 0.8707626,0.501492 h 5.271e-4 A 2.7013464,2.7013464 0 0 0 3.6047386,5.2445937 L 2.6433704,4.6909507 2.8756789,4.5571496 3.872868,5.1329169 A 2.7013464,2.7013464 0 0 0 3.910272,5.1144819 V 3.9613636 l 0.2317808,-0.133801 -0.00105,1.1573299 a 2.7013464,2.7013464 0 0 0 0.124321,-0.08323 v -0.013698 l 0.083758,-0.048462 A 2.7013464,2.7013464 0 0 0 4.5560981,4.663031 L 4.2653171,4.4944622 V 4.2268599 L 4.7230863,4.490775 A 2.7013464,2.7013464 0 0 0 4.7989433,4.401749 L 4.2653171,4.0935851 V 3.8275626 l 0.1701493,0.098508 0.3466191,0.2001753 0.1548722,0.089553 A 2.7013464,2.7013464 0 0 0 5.0981519,3.9455611 L 4.8979765,4.0598716 4.6661944,3.9260698 5.2524977,3.5878794 A 2.7013464,2.7013464 0 0 0 5.3035952,3.4251049 L 4.5513575,3.8596962 4.3190483,3.7258949 4.4913046,3.6263336 v 0.00158 L 4.8384503,3.4282638 5.2951665,3.1643486 5.3694426,3.1216799 a 2.7013464,2.7013464 0 0 0 0,-5.271e-4 2.7013464,2.7013464 0 0 0 0.018964,-0.1448632 L 5.1787488,3.0974493 4.8395039,2.9025421 4.8384518,3.2934103 4.6066698,3.4266852 V 2.4995578 L 5.3910397,2.9525862 A 2.7013464,2.7013464 0 0 0 5.4,2.8245792 l -0.9086917,-0.52467 v 1.1931503 l -0.2317822,0.1338011 0.00158,-1.7257217 1.1378384,0.6553108 a 2.7013464,2.7013464 0 0 0 -0.012119,-0.1496052 2.7013464,2.7013464 0 0 0 0,-5.265e-4 L 4.3274772,1.7963105 4.5508303,1.6672498 5.3409958,2.1234386 A 2.7013464,2.7013464 0 0 0 5.2988536,1.9559233 L 4.6751494,1.595608 4.9064051,1.4623334 5.1771683,1.6172058 A 2.7013464,2.7013464 0 0 0 5.0881427,1.4333606 l -0.065847,-0.037928 0.03424,-0.020017 A 2.7013464,2.7013464 0 0 0 4.9964837,1.273747 L 4.7878803,1.3938523 4.4412607,1.5940277 4.2668977,1.694642 4.2658443,0.49622416 A 2.7013464,2.7013464 0 0 0 4.140998,0.41299334 L 4.1420491,1.6914815 3.9102669,1.5571532 V 0.36242267 L 2.8767326,0.95926122 2.6449506,0.82493284 2.8156263,0.7269526 v 0.001583 L 3.1622459,0.5283572 3.3908671,0.39666318 3.6189613,0.26444216 3.7295844,0.20070204 A 2.7013464,2.7013464 0 0 0 3.5899886,0.14749758 H 3.5894621 L 3.5030698,0.19754169 3.2533776,0.05425816 a 2.7013464,2.7013464 0 0 0 -5.268e-4,0 2.7013464,2.7013464 0 0 0 -0.089027,-0.0168568 L 3.1627731,0.39350244 2.9309908,0.52677728 V 0.00737495 A 2.7013464,2.7013464 0 0 0 2.8156263,0 V 0.59367784 L 2.5854247,0.72642578 V 0.53151831 0.13064093 Z M 3.2786636,0.2022826 3.3871799,0.26444122 3.2781366,0.32712887 Z m -1.6667228,0.16593463 0.054784,0.0316047 0.054786,0.0316047 -0.1095694,0.0626876 z M 3.7949054,0.56259799 3.7943783,1.4902525 3.5631234,1.3564511 3.56207,0.96505579 3.2233518,1.1599634 2.9920967,1.0256352 Z M 4.4970993,0.68059622 V 1.2958717 l 0.3692706,-0.212818 a 2.7013464,2.7013464 0 0 0 0,-5.266e-4 2.7013464,2.7013464 0 0 0 -0.071644,-0.0916573 L 4.6124629,1.0962231 V 0.78963915 A 2.7013464,2.7013464 0 0 0 4.4970993,0.68059622 Z M 2.5912193,0.93239546 4.0798917,1.7942028 2.5912193,2.6560103 V 2.3957825 l 1.0345903,-0.5978924 -0.00632,-0.00369 0.00474,-0.00264 L 2.591216,1.1952531 Z M 2.4700605,0.93607671 2.4684763,2.6538971 0.97980609,1.796306 1.2031596,1.6672454 2.2382769,2.2651371 v -0.01001 l 0.00527,0.00316 V 1.0667235 Z M 2.1223877,1.1362584 2.1229145,2.0549575 1.3269544,1.595608 1.5587362,1.4623334 1.8953469,1.6556606 1.8963995,1.2668991 Z m 1.3248446,0.027919 V 1.2895506 L 3.338716,1.2263373 Z M 1.7810361,1.3338001 1.7805093,1.4565392 1.6741004,1.3954334 1.7204565,1.3685693 Z m 0.8101832,0 0.7970141,0.4604031 -0.7970141,0.4604035 V 1.9949054 l 0.3387178,-0.1970152 -0.00634,-0.00369 0.00475,-0.00263 L 2.5912183,1.595603 Z m -2.41316609,0.400877 a 2.7013464,2.7013464 0 0 0 -0.0526766,0.151185 l 0.15276529,-0.087972 -0.006855,-0.00369 0.005272,-0.00263 z m 2.41316609,0 0.1021946,0.059524 -0.1021946,0.059524 z m 1.5529389,0.1633007 v 0.2681296 l -1.035117,0.5973655 1.035117,0.5973652 V 3.6289674 L 2.648638,2.7634729 Z M 0.91343409,1.9011381 2.4105348,2.763472 2.1782261,2.8972739 1.1436356,2.2999084 V 3.4930581 L 0.91185399,3.6268606 Z M 4.1441582,2.299383 v 0.267076 l -0.3392444,0.1970139 0.3392444,0.196488 v 0.267603 L 3.3397698,2.7634729 Z M 1.259,2.4995578 2.062335,2.9636482 1.8305529,3.0974493 1.4918356,2.9025421 1.4907834,3.2934103 1.2590014,3.4266852 Z M 0.79596277,2.7002593 V 2.8266859 L 0.68692003,2.763473 Z m 3.34819543,0 V 2.8266859 L 4.0351155,2.7634729 Z M 2.5838444,2.859346 2.8156263,2.9936746 V 4.1926193 L 3.8528509,3.5936736 4.0846323,3.7274748 3.9102693,3.8280894 v -0.00211 L 3.5631234,4.0266844 3.1064076,4.290073 2.7597879,4.4902487 2.5854247,4.5913896 v -5.269e-4 z m -0.115364,0.00369 0.00158,1.7278288 L 2.2377517,4.4570615 2.2382787,3.2618038 1.2031616,3.8596962 0.97137958,3.7258949 1.1436356,3.6263336 v 0.00158 L 1.4902552,3.4282657 1.9474979,3.1643505 2.294117,2.9641751 2.2935902,2.9636482 Z m 0.4625102,0.201226 0.231782,0.133274 0.00105,0.3919223 L 3.5035943,3.394553 3.7348494,3.5283541 2.9309874,3.9924446 Z M 1.6066728,3.101666 1.7146621,3.1638248 1.606146,3.2265121 Z m 3.3476685,0 0.1085165,0.062159 -0.1085165,0.062687 z M 3.2781366,3.2644399 3.3877063,3.3276536 3.2786636,3.3903409 Z M 2.1229145,3.4619792 2.1223877,4.3901609 1.8911325,4.256886 1.8900789,3.8649638 1.5503077,4.0598716 1.3185259,3.9260698 Z M 3.7943783,4.0277377 3.7949054,4.9548655 2.991043,4.490775 3.2228251,4.3569737 3.56207,4.5518815 3.5631225,4.1610127 Z M 1.7752416,4.0640853 V 4.1899855 L 1.6656719,4.1267722 Z M 3.4472323,4.2279128 V 4.352759 L 3.338716,4.2905988 Z m 0.8180848,0.3998238 0.1085158,0.063214 -0.1085158,0.063214 z M 2.8156263,5.1892815 v 0.2086041 a 2.7013464,2.7013464 0 0 0 0.1153643,-0.00739 v -0.00105 l 0.00158,0.00105 a 2.7013464,2.7013464 0 0 0 0.1912213,-0.023174 z" /></g></svg>
